<?xml version="1.0" encoding="UTF-8"?>
<svg width="10px" height="16px" viewBox="0 0 10 16" version="1.1" xmlns="http://www.w3.org/2000/svg" xmlns:xlink="http://www.w3.org/1999/xlink">
    <!-- Generator: Sketch 52.5 (67469) - http://www.bohemiancoding.com/sketch -->
    <title>right-arrow</title>
    <desc>Created with Sketch.</desc>
    <g id="Page-1" stroke="none" stroke-width="1" fill="none" fill-rule="evenodd">
        <g id="right-arrow" fill="#90CFBE">
            <path d="M9.14167951,7.3607789 L2.03586207,0.255091278 C1.87151318,0.0906125761 1.6521217,0 1.41819067,0 C1.18425963,0 0.964868154,0.0906125761 0.80051927,0.255091278 L0.277225152,0.778255578 C-0.0632860041,1.11915619 -0.0632860041,1.67321704 0.277225152,2.01359838 L6.24415416,7.98052738 L0.270604462,13.9540771 C0.106255578,14.1185558 0.0155131846,14.3378174 0.0155131846,14.5716187 C0.0155131846,14.8056795 0.106255578,15.0249412 0.270604462,15.1895497 L0.79389858,15.7125842 C0.958377282,15.8770629 1.17763895,15.9676755 1.41156998,15.9676755 C1.64550101,15.9676755 1.86489249,15.8770629 2.02924138,15.7125842 L9.14167951,8.60040568 C9.30641785,8.43540771 9.39690061,8.21510751 9.39638134,7.98091684 C9.39690061,7.74581744 9.30641785,7.52564706 9.14167951,7.3607789 Z" id="Path"></path>
        </g>
    </g>
</svg>