<?xml version="1.0" encoding="UTF-8"?>
<svg width="132px" height="30px" viewBox="0 0 132 30" version="1.1" xmlns="http://www.w3.org/2000/svg" xmlns:xlink="http://www.w3.org/1999/xlink">
    <!-- Generator: Sketch 52.5 (67469) - http://www.bohemiancoding.com/sketch -->
    <title>best-buy</title>
    <desc>Created with Sketch.</desc>
    <g id="Page-1" stroke="none" stroke-width="1" fill="none" fill-rule="evenodd">
        <g id="Artboard" transform="translate(-14.000000, -14.000000)">
            <g id="best-buy" transform="translate(14.000000, 14.000000)">
                <g id="Group" fill-rule="nonzero">
                    <circle id="Oval" stroke="#FFF5D6" stroke-width="2" fill="#FFD650" cx="15" cy="15" r="14"></circle>
                    <g id="Logo" transform="translate(6.758242, 5.109890)" fill="#FFF5D6">
                        <polygon id="Fill-1" points="8.23878297 -2.47252747e-05 6.42312363 7.31791484 6.40779396 18.4323379 8.23433242 19.7801951 10.0456236 18.4222005 10.030294 7.31791484"></polygon>
                        <polygon id="Fill-2" points="13.166728 7.36274176 13.166728 16.1279341 15.8017005 14.1939231 15.8017005 6.41625824 16.4604643 4.91831868"></polygon>
                        <polygon id="Fill-3" points="0.658755495 6.41625824 0.658755495 14.1939231 3.29381044 16.1279341 3.29381044 7.36274176 -8.24175824e-06 4.91831868"></polygon>
                    </g>
                </g>
                <path d="M47.568,15.176 C48.2080032,15.3786677 48.7093315,15.717331 49.072,16.192 C49.4346684,16.666669 49.616,17.2506632 49.616,17.944 C49.616,18.9253382 49.2346704,19.6799974 48.472,20.208 C47.7093295,20.7360026 46.5973406,21 45.136,21 L39.344,21 L39.344,9.8 L44.816,9.8 C46.1813401,9.8 47.2293296,10.0613307 47.96,10.584 C48.6906703,11.1066693 49.056,11.8159955 49.056,12.712 C49.056,13.2560027 48.9253346,13.7413312 48.664,14.168 C48.4026653,14.5946688 48.0373356,14.9306654 47.568,15.176 Z M41.92,11.752 L41.92,14.392 L44.496,14.392 C45.1360032,14.392 45.6213316,14.2800011 45.952,14.056 C46.2826683,13.8319989 46.448,13.5013355 46.448,13.064 C46.448,12.6266645 46.2826683,12.2986678 45.952,12.08 C45.6213316,11.8613322 45.1360032,11.752 44.496,11.752 L41.92,11.752 Z M44.944,19.048 C45.62667,19.048 46.1413316,18.9360011 46.488,18.712 C46.8346684,18.4879989 47.008,18.1413357 47.008,17.672 C47.008,16.7439954 46.3200068,16.28 44.944,16.28 L41.92,16.28 L41.92,19.048 L44.944,19.048 Z M61.056,18.92 L61.056,21 L52.384,21 L52.384,9.8 L60.848,9.8 L60.848,11.88 L54.96,11.88 L54.96,14.312 L60.16,14.312 L60.16,16.328 L54.96,16.328 L54.96,18.92 L61.056,18.92 Z M67.6,21.192 C66.7146622,21.192 65.8586708,21.0720012 65.032,20.832 C64.2053292,20.5919988 63.5413358,20.2800019 63.04,19.896 L63.92,17.944 C64.4000024,18.2960018 64.9706633,18.5786656 65.632,18.792 C66.2933366,19.0053344 66.9546633,19.112 67.616,19.112 C68.3520037,19.112 68.8959982,19.0026678 69.248,18.784 C69.6000017,18.5653322 69.776,18.2746685 69.776,17.912 C69.776,17.645332 69.672001,17.4240009 69.464,17.248 C69.2559989,17.0719991 68.9893349,16.9306672 68.664,16.824 C68.338665,16.7173328 67.8986694,16.6000006 67.344,16.472 C66.4906624,16.2693323 65.7920027,16.0666677 65.248,15.864 C64.7039973,15.6613323 64.2373353,15.3360022 63.848,14.888 C63.4586647,14.4399978 63.264,13.8426704 63.264,13.096 C63.264,12.4453301 63.4399982,11.8560026 63.792,11.328 C64.1440017,10.7999974 64.6746631,10.3813349 65.384,10.072 C66.0933369,9.76266512 66.9599949,9.608 67.984,9.608 C68.6986702,9.608 69.3973299,9.69333248 70.08,9.864 C70.7626701,10.0346675 71.3599974,10.2799984 71.872,10.6 L71.072,12.568 C70.0373281,11.9813304 69.0026718,11.688 67.968,11.688 C67.242663,11.688 66.7066684,11.8053322 66.36,12.04 C66.0133316,12.2746678 65.84,12.5839981 65.84,12.968 C65.84,13.3520019 66.039998,13.6373324 66.44,13.824 C66.840002,14.0106676 67.4506625,14.1946658 68.272,14.376 C69.1253376,14.5786677 69.8239973,14.7813323 70.368,14.984 C70.9120027,15.1866677 71.3786647,15.5066645 71.768,15.944 C72.1573353,16.3813355 72.352,16.9733296 72.352,17.72 C72.352,18.3600032 72.1733351,18.9439974 71.816,19.472 C71.4586649,20.0000026 70.9226702,20.4186651 70.208,20.728 C69.4933297,21.0373349 68.6240051,21.192 67.6,21.192 Z M77.088,11.912 L73.504,11.912 L73.504,9.8 L83.264,9.8 L83.264,11.912 L79.68,11.912 L79.68,21 L77.088,21 L77.088,11.912 Z M99.008,15.176 C99.6480032,15.3786677 100.149332,15.717331 100.512,16.192 C100.874668,16.666669 101.056,17.2506632 101.056,17.944 C101.056,18.9253382 100.67467,19.6799974 99.912,20.208 C99.1493295,20.7360026 98.0373407,21 96.576,21 L90.784,21 L90.784,9.8 L96.256,9.8 C97.6213402,9.8 98.6693297,10.0613307 99.4,10.584 C100.13067,11.1066693 100.496,11.8159955 100.496,12.712 C100.496,13.2560027 100.365335,13.7413312 100.104,14.168 C99.8426654,14.5946688 99.4773357,14.9306654 99.008,15.176 Z M93.36,11.752 L93.36,14.392 L95.936,14.392 C96.5760032,14.392 97.0613317,14.2800011 97.392,14.056 C97.7226683,13.8319989 97.888,13.5013355 97.888,13.064 C97.888,12.6266645 97.7226683,12.2986678 97.392,12.08 C97.0613317,11.8613322 96.5760032,11.752 95.936,11.752 L93.36,11.752 Z M96.384,19.048 C97.0666701,19.048 97.5813316,18.9360011 97.928,18.712 C98.2746684,18.4879989 98.448,18.1413357 98.448,17.672 C98.448,16.7439954 97.7600069,16.28 96.384,16.28 L93.36,16.28 L93.36,19.048 L96.384,19.048 Z M108.8,21.192 C107.199992,21.192 105.954671,20.7493378 105.064,19.864 C104.173329,18.9786622 103.728,17.7146749 103.728,16.072 L103.728,9.8 L106.32,9.8 L106.32,15.976 C106.32,17.9813434 107.151992,18.984 108.816,18.984 C109.626671,18.984 110.245331,18.7413358 110.672,18.256 C111.098669,17.7706642 111.312,17.0106718 111.312,15.976 L111.312,9.8 L113.872,9.8 L113.872,16.072 C113.872,17.7146749 113.426671,18.9786622 112.536,19.864 C111.645329,20.7493378 110.400008,21.192 108.8,21.192 Z M122.448,17.032 L122.448,21 L119.856,21 L119.856,17 L115.52,9.8 L118.272,9.8 L121.264,14.776 L124.256,9.8 L126.8,9.8 L122.448,17.032 Z M128.192,9.8 L131.168,9.8 L130.672,17.112 L128.688,17.112 L128.192,9.8 Z M129.68,21.128 C129.242665,21.128 128.877335,20.9866681 128.584,20.704 C128.290665,20.4213319 128.144,20.0773354 128.144,19.672 C128.144,19.2666646 128.287999,18.9280014 128.576,18.656 C128.864001,18.3839986 129.231998,18.248 129.68,18.248 C130.128002,18.248 130.495999,18.3839986 130.784,18.656 C131.072001,18.9280014 131.216,19.2666646 131.216,19.672 C131.216,20.0773354 131.069335,20.4213319 130.776,20.704 C130.482665,20.9866681 130.117336,21.128 129.68,21.128 Z" id="BEST-BUY!" fill="#FFD650"></path>
            </g>
        </g>
    </g>
</svg>