<?xml version="1.0" encoding="UTF-8"?>
<svg width="271px" height="114px" viewBox="0 0 271 114" version="1.1" xmlns="http://www.w3.org/2000/svg" xmlns:xlink="http://www.w3.org/1999/xlink">
    <!-- Generator: Sketch 52.5 (67469) - http://www.bohemiancoding.com/sketch -->
    <title>Artboard</title>
    <desc>Created with Sketch.</desc>
    <defs>
        <linearGradient x1="71.241727%" y1="0%" x2="22.4304342%" y2="84.3926668%" id="linearGradient-1">
            <stop stop-color="#1D202B" stop-opacity="0" offset="0%"></stop>
            <stop stop-color="#1D202B" offset="100%"></stop>
        </linearGradient>
        <path d="M10.8526365,1.46662462 C7.77835948,-5.62727975 33.6578242,15.4595341 74.9669607,12.8122269 C116.276097,10.1649197 114.566984,3.35755833 120.224131,12.8122269 C125.881277,22.2668954 135.309854,35.5034314 148.509862,35.5034314 C161.70987,35.5034314 125.321864,63.4892504 84.0351687,45.7144735 C82.8642195,47.412258 80.4830753,48.904313 76.8917362,50.1906383 C71.5047275,52.1201263 68.4211803,50.1490872 71.5047275,47.2036986 C73.5604257,45.2401062 74.7350666,43.8612621 75.0286504,43.0671663 C39.3675231,31.7695454 17.9755184,17.9026982 10.8526365,1.46662462 Z" id="path-2"></path>
        <filter x="-0.4%" y="-1.0%" width="100.7%" height="101.9%" filterUnits="objectBoundingBox" id="filter-3">
            <feOffset dx="0" dy="1" in="SourceAlpha" result="shadowOffsetInner1"></feOffset>
            <feComposite in="shadowOffsetInner1" in2="SourceAlpha" operator="arithmetic" k2="-1" k3="1" result="shadowInnerInner1"></feComposite>
            <feColorMatrix values="0 0 0 0 0.21   0 0 0 0 0.3   0 0 0 0 0.276  0 0 0 1 0" type="matrix" in="shadowInnerInner1"></feColorMatrix>
        </filter>
        <path d="M37.5647725,1.51274697 C37.5647725,-3.40368068 42.5296905,15.0492168 59.9918558,16.4643408 C77.4540211,17.8794648 88.1711914,9.76813415 92.1968107,16.4643408 C96.2224301,23.1605475 105.847482,23.1605475 114.521001,18.7409813 C123.19452,14.3214152 104.38238,46.6637244 68.5955097,38.430392 C64.7995953,41.4814964 61.1124739,43.0070486 57.5341456,43.0070486 C53.9558173,43.0070486 52.6780207,42.3018885 53.7007558,40.8915683 L61.1481328,35.9692157 C45.4258926,28.6620925 37.5647725,17.176603 37.5647725,1.51274697 Z" id="path-4"></path>
        <filter x="-0.6%" y="-1.2%" width="101.3%" height="102.4%" filterUnits="objectBoundingBox" id="filter-5">
            <feOffset dx="0" dy="1" in="SourceAlpha" result="shadowOffsetInner1"></feOffset>
            <feComposite in="shadowOffsetInner1" in2="SourceAlpha" operator="arithmetic" k2="-1" k3="1" result="shadowInnerInner1"></feComposite>
            <feColorMatrix values="0 0 0 0 0.21   0 0 0 0 0.3   0 0 0 0 0.276  0 0 0 1 0" type="matrix" in="shadowInnerInner1"></feColorMatrix>
        </filter>
        <path d="M9.84820267,0.756373485 C9.46942564,-1.89093371 17.1883807,6.41677002 26.1356148,7.19407517 C35.0828488,7.97138031 36.6631822,2.26543267 38.725822,5.94355268 C40.7884619,9.6216727 46.163389,7.95897571 50.1642518,7.19407517 C54.1651147,6.42917462 43.2332083,17.7747769 27.2719458,17.7747769 L24.9992837,18.7838893 L23.4841756,18.1134008 L24.724552,16.3410076 C15.8154285,12.9993493 10.8566453,7.80447129 9.84820267,0.756373485 Z" id="path-6"></path>
        <filter x="-1.2%" y="-2.7%" width="102.4%" height="105.4%" filterUnits="objectBoundingBox" id="filter-7">
            <feOffset dx="0" dy="1" in="SourceAlpha" result="shadowOffsetInner1"></feOffset>
            <feComposite in="shadowOffsetInner1" in2="SourceAlpha" operator="arithmetic" k2="-1" k3="1" result="shadowInnerInner1"></feComposite>
            <feColorMatrix values="0 0 0 0 0.21   0 0 0 0 0.3   0 0 0 0 0.276  0 0 0 1 0" type="matrix" in="shadowInnerInner1"></feColorMatrix>
        </filter>
    </defs>
    <g id="Artboard" stroke="none" stroke-width="1" fill="none" fill-rule="evenodd">
        <g id="Group">
            <g id="::-filshes" transform="translate(112.305153, 55.971638)">
                <g id="Group-32" transform="translate(111.741233, 41.169727) scale(-1, -1) rotate(30.000000) translate(-111.741233, -41.169727) translate(103.241233, 36.175892)">
                    <path d="M0.337572329,8.32010833 C2.13672519,5.74142794 4.50411961,3.3348223 10.1645635,2.26912045 C10.6689741,2.17415417 13.3766601,1.52217173 13.9735453,1.51274697 C12.7864049,2.6234738 12.1523408,3.23083225 12.0713529,3.3348223 C10.6011553,5.22258623 9.2254796,6.50757365 7.94432573,7.18978454 C5.59060143,8.44313622 -1.63641648,11.1493767 0.337572329,8.32010833 Z" id="Path-61" fill="#1D202B"></path>
                    <path d="" id="Path-62" stroke="#979797"></path>
                    <path d="M11.5145893,1.89093371 C12.5246614,0.882435732 13.6609925,0.252124495 14.9235826,0 C14.3528321,0.743717541 14.2265731,1.24796653 14.5448055,1.51274697 C14.863038,1.77752741 15.6079661,1.77752741 16.77959,1.51274697 C16.1270194,2.26912045 14.7139126,2.89943169 12.5402695,3.40368068 C10.3666264,3.90792967 10.024733,3.40368068 11.5145893,1.89093371 Z" id="Path-63" fill="url(#linearGradient-1)"></path>
                </g>
                <g id="Group-32" transform="translate(126.800183, 29.587914) scale(-1, -1) rotate(37.000000) translate(-126.800183, -29.587914) translate(118.300183, 24.594080)">
                    <path d="M0.337572329,8.32010833 C2.13672519,5.74142794 4.50411961,3.3348223 10.1645635,2.26912045 C10.6689741,2.17415417 13.3766601,1.52217173 13.9735453,1.51274697 C12.7864049,2.6234738 12.1523408,3.23083225 12.0713529,3.3348223 C10.6011553,5.22258623 9.2254796,6.50757365 7.94432573,7.18978454 C5.59060143,8.44313622 -1.63641648,11.1493767 0.337572329,8.32010833 Z" id="Path-61" fill="#1D202B"></path>
                    <path d="" id="Path-62" stroke="#979797"></path>
                    <path d="M11.5145893,1.89093371 C12.5246614,0.882435732 13.6609925,0.252124495 14.9235826,0 C14.3528321,0.743717541 14.2265731,1.24796653 14.5448055,1.51274697 C14.863038,1.77752741 15.6079661,1.77752741 16.77959,1.51274697 C16.1270194,2.26912045 14.7139126,2.89943169 12.5402695,3.40368068 C10.3666264,3.90792967 10.024733,3.40368068 11.5145893,1.89093371 Z" id="Path-63" fill="url(#linearGradient-1)"></path>
                </g>
                <g id="Group-32" transform="translate(103.387298, 47.486074) scale(-1, -1) rotate(33.000000) translate(-103.387298, -47.486074) translate(94.887298, 42.492239)">
                    <path d="M0.337572329,8.32010833 C2.13672519,5.74142794 4.50411961,3.3348223 10.1645635,2.26912045 C10.6689741,2.17415417 13.3766601,1.52217173 13.9735453,1.51274697 C12.7864049,2.6234738 12.1523408,3.23083225 12.0713529,3.3348223 C10.6011553,5.22258623 9.2254796,6.50757365 7.94432573,7.18978454 C5.59060143,8.44313622 -1.63641648,11.1493767 0.337572329,8.32010833 Z" id="Path-61" fill="#1D202B"></path>
                    <path d="" id="Path-62" stroke="#979797"></path>
                    <path d="M11.5145893,1.89093371 C12.5246614,0.882435732 13.6609925,0.252124495 14.9235826,0 C14.3528321,0.743717541 14.2265731,1.24796653 14.5448055,1.51274697 C14.863038,1.77752741 15.6079661,1.77752741 16.77959,1.51274697 C16.1270194,2.26912045 14.7139126,2.89943169 12.5402695,3.40368068 C10.3666264,3.90792967 10.024733,3.40368068 11.5145893,1.89093371 Z" id="Path-63" fill="url(#linearGradient-1)"></path>
                </g>
                <g id="Group-32" transform="translate(65.238944, 44.408757) scale(-1, -1) rotate(43.000000) translate(-65.238944, -44.408757) translate(56.738944, 39.414922)">
                    <path d="M0.337572329,8.32010833 C2.13672519,5.74142794 4.50411961,3.3348223 10.1645635,2.26912045 C10.6689741,2.17415417 13.3766601,1.52217173 13.9735453,1.51274697 C12.7864049,2.6234738 12.1523408,3.23083225 12.0713529,3.3348223 C10.6011553,5.22258623 9.2254796,6.50757365 7.94432573,7.18978454 C5.59060143,8.44313622 -1.63641648,11.1493767 0.337572329,8.32010833 Z" id="Path-61" fill="#1D202B"></path>
                    <path d="" id="Path-62" stroke="#979797"></path>
                    <path d="M11.5145893,1.89093371 C12.5246614,0.882435732 13.6609925,0.252124495 14.9235826,0 C14.3528321,0.743717541 14.2265731,1.24796653 14.5448055,1.51274697 C14.863038,1.77752741 15.6079661,1.77752741 16.77959,1.51274697 C16.1270194,2.26912045 14.7139126,2.89943169 12.5402695,3.40368068 C10.3666264,3.90792967 10.024733,3.40368068 11.5145893,1.89093371 Z" id="Path-63" fill="url(#linearGradient-1)"></path>
                </g>
                <g id="Group-32" transform="translate(72.814485, 39.870516) scale(-1, -1) rotate(43.000000) translate(-72.814485, -39.870516) translate(64.314485, 34.876681)">
                    <path d="M0.337572329,8.32010833 C2.13672519,5.74142794 4.50411961,3.3348223 10.1645635,2.26912045 C10.6689741,2.17415417 13.3766601,1.52217173 13.9735453,1.51274697 C12.7864049,2.6234738 12.1523408,3.23083225 12.0713529,3.3348223 C10.6011553,5.22258623 9.2254796,6.50757365 7.94432573,7.18978454 C5.59060143,8.44313622 -1.63641648,11.1493767 0.337572329,8.32010833 Z" id="Path-61" fill="#1D202B"></path>
                    <path d="" id="Path-62" stroke="#979797"></path>
                    <path d="M11.5145893,1.89093371 C12.5246614,0.882435732 13.6609925,0.252124495 14.9235826,0 C14.3528321,0.743717541 14.2265731,1.24796653 14.5448055,1.51274697 C14.863038,1.77752741 15.6079661,1.77752741 16.77959,1.51274697 C16.1270194,2.26912045 14.7139126,2.89943169 12.5402695,3.40368068 C10.3666264,3.90792967 10.024733,3.40368068 11.5145893,1.89093371 Z" id="Path-63" fill="url(#linearGradient-1)"></path>
                </g>
                <g id="Group-32" transform="translate(58.566122, 32.059015) scale(-1, -1) rotate(39.000000) translate(-58.566122, -32.059015) translate(50.066122, 27.065180)">
                    <path d="M0.337572329,8.32010833 C2.13672519,5.74142794 4.50411961,3.3348223 10.1645635,2.26912045 C10.6689741,2.17415417 13.3766601,1.52217173 13.9735453,1.51274697 C12.7864049,2.6234738 12.1523408,3.23083225 12.0713529,3.3348223 C10.6011553,5.22258623 9.2254796,6.50757365 7.94432573,7.18978454 C5.59060143,8.44313622 -1.63641648,11.1493767 0.337572329,8.32010833 Z" id="Path-61" fill="#1D202B"></path>
                    <path d="" id="Path-62" stroke="#979797"></path>
                    <path d="M11.5145893,1.89093371 C12.5246614,0.882435732 13.6609925,0.252124495 14.9235826,0 C14.3528321,0.743717541 14.2265731,1.24796653 14.5448055,1.51274697 C14.863038,1.77752741 15.6079661,1.77752741 16.77959,1.51274697 C16.1270194,2.26912045 14.7139126,2.89943169 12.5402695,3.40368068 C10.3666264,3.90792967 10.024733,3.40368068 11.5145893,1.89093371 Z" id="Path-63" fill="url(#linearGradient-1)"></path>
                </g>
                <g id="Group-32" transform="translate(42.657487, 40.379123) scale(-1, -1) rotate(39.000000) translate(-42.657487, -40.379123) translate(34.157487, 35.385289)">
                    <path d="M0.337572329,8.32010833 C2.13672519,5.74142794 4.50411961,3.3348223 10.1645635,2.26912045 C10.6689741,2.17415417 13.3766601,1.52217173 13.9735453,1.51274697 C12.7864049,2.6234738 12.1523408,3.23083225 12.0713529,3.3348223 C10.6011553,5.22258623 9.2254796,6.50757365 7.94432573,7.18978454 C5.59060143,8.44313622 -1.63641648,11.1493767 0.337572329,8.32010833 Z" id="Path-61" fill="#1D202B"></path>
                    <path d="" id="Path-62" stroke="#979797"></path>
                    <path d="M11.5145893,1.89093371 C12.5246614,0.882435732 13.6609925,0.252124495 14.9235826,0 C14.3528321,0.743717541 14.2265731,1.24796653 14.5448055,1.51274697 C14.863038,1.77752741 15.6079661,1.77752741 16.77959,1.51274697 C16.1270194,2.26912045 14.7139126,2.89943169 12.5402695,3.40368068 C10.3666264,3.90792967 10.024733,3.40368068 11.5145893,1.89093371 Z" id="Path-63" fill="url(#linearGradient-1)"></path>
                </g>
                <g id="Group-32" transform="translate(34.324392, 20.713413) scale(-1, -1) rotate(39.000000) translate(-34.324392, -20.713413) translate(25.824392, 15.719578)">
                    <path d="M0.337572329,8.32010833 C2.13672519,5.74142794 4.50411961,3.3348223 10.1645635,2.26912045 C10.6689741,2.17415417 13.3766601,1.52217173 13.9735453,1.51274697 C12.7864049,2.6234738 12.1523408,3.23083225 12.0713529,3.3348223 C10.6011553,5.22258623 9.2254796,6.50757365 7.94432573,7.18978454 C5.59060143,8.44313622 -1.63641648,11.1493767 0.337572329,8.32010833 Z" id="Path-61" fill="#1D202B"></path>
                    <path d="" id="Path-62" stroke="#979797"></path>
                    <path d="M11.5145893,1.89093371 C12.5246614,0.882435732 13.6609925,0.252124495 14.9235826,0 C14.3528321,0.743717541 14.2265731,1.24796653 14.5448055,1.51274697 C14.863038,1.77752741 15.6079661,1.77752741 16.77959,1.51274697 C16.1270194,2.26912045 14.7139126,2.89943169 12.5402695,3.40368068 C10.3666264,3.90792967 10.024733,3.40368068 11.5145893,1.89093371 Z" id="Path-63" fill="url(#linearGradient-1)"></path>
                </g>
                <g id="Group-32" transform="translate(44.930149, 9.367810) scale(-1, -1) rotate(39.000000) translate(-44.930149, -9.367810) translate(36.430149, 4.373976)">
                    <path d="M0.337572329,8.32010833 C2.13672519,5.74142794 4.50411961,3.3348223 10.1645635,2.26912045 C10.6689741,2.17415417 13.3766601,1.52217173 13.9735453,1.51274697 C12.7864049,2.6234738 12.1523408,3.23083225 12.0713529,3.3348223 C10.6011553,5.22258623 9.2254796,6.50757365 7.94432573,7.18978454 C5.59060143,8.44313622 -1.63641648,11.1493767 0.337572329,8.32010833 Z" id="Path-61" fill="#1D202B"></path>
                    <path d="" id="Path-62" stroke="#979797"></path>
                    <path d="M11.5145893,1.89093371 C12.5246614,0.882435732 13.6609925,0.252124495 14.9235826,0 C14.3528321,0.743717541 14.2265731,1.24796653 14.5448055,1.51274697 C14.863038,1.77752741 15.6079661,1.77752741 16.77959,1.51274697 C16.1270194,2.26912045 14.7139126,2.89943169 12.5402695,3.40368068 C10.3666264,3.90792967 10.024733,3.40368068 11.5145893,1.89093371 Z" id="Path-63" fill="url(#linearGradient-1)"></path>
                </g>
                <g id="Group-32" transform="translate(10.082662, 31.302641) scale(-1, -1) rotate(39.000000) translate(-10.082662, -31.302641) translate(1.582662, 26.308807)">
                    <path d="M0.337572329,8.32010833 C2.13672519,5.74142794 4.50411961,3.3348223 10.1645635,2.26912045 C10.6689741,2.17415417 13.3766601,1.52217173 13.9735453,1.51274697 C12.7864049,2.6234738 12.1523408,3.23083225 12.0713529,3.3348223 C10.6011553,5.22258623 9.2254796,6.50757365 7.94432573,7.18978454 C5.59060143,8.44313622 -1.63641648,11.1493767 0.337572329,8.32010833 Z" id="Path-61" fill="#1D202B"></path>
                    <path d="" id="Path-62" stroke="#979797"></path>
                    <path d="M11.5145893,1.89093371 C12.5246614,0.882435732 13.6609925,0.252124495 14.9235826,0 C14.3528321,0.743717541 14.2265731,1.24796653 14.5448055,1.51274697 C14.863038,1.77752741 15.6079661,1.77752741 16.77959,1.51274697 C16.1270194,2.26912045 14.7139126,2.89943169 12.5402695,3.40368068 C10.3666264,3.90792967 10.024733,3.40368068 11.5145893,1.89093371 Z" id="Path-63" fill="url(#linearGradient-1)"></path>
                </g>
                <g id="Group-32" transform="translate(63.970145, 21.831390) scale(-1, -1) rotate(50.000000) translate(-63.970145, -21.831390) translate(55.470145, 16.837555)">
                    <path d="M0.337572329,8.32010833 C2.13672519,5.74142794 4.50411961,3.3348223 10.1645635,2.26912045 C10.6689741,2.17415417 13.3766601,1.52217173 13.9735453,1.51274697 C12.7864049,2.6234738 12.1523408,3.23083225 12.0713529,3.3348223 C10.6011553,5.22258623 9.2254796,6.50757365 7.94432573,7.18978454 C5.59060143,8.44313622 -1.63641648,11.1493767 0.337572329,8.32010833 Z" id="Path-61" fill="#1D202B"></path>
                    <path d="" id="Path-62" stroke="#979797"></path>
                    <path d="M11.5145893,1.89093371 C12.5246614,0.882435732 13.6609925,0.252124495 14.9235826,0 C14.3528321,0.743717541 14.2265731,1.24796653 14.5448055,1.51274697 C14.863038,1.77752741 15.6079661,1.77752741 16.77959,1.51274697 C16.1270194,2.26912045 14.7139126,2.89943169 12.5402695,3.40368068 C10.3666264,3.90792967 10.024733,3.40368068 11.5145893,1.89093371 Z" id="Path-63" fill="url(#linearGradient-1)"></path>
                </g>
                <g id="Group-32" transform="translate(90.437588, 32.674307) scale(-1, -1) rotate(37.000000) translate(-90.437588, -32.674307) translate(81.937588, 27.680472)">
                    <path d="M0.337572329,8.32010833 C2.13672519,5.74142794 4.50411961,3.3348223 10.1645635,2.26912045 C10.6689741,2.17415417 13.3766601,1.52217173 13.9735453,1.51274697 C12.7864049,2.6234738 12.1523408,3.23083225 12.0713529,3.3348223 C10.6011553,5.22258623 9.2254796,6.50757365 7.94432573,7.18978454 C5.59060143,8.44313622 -1.63641648,11.1493767 0.337572329,8.32010833 Z" id="Path-61" fill="#1D202B"></path>
                    <path d="" id="Path-62" stroke="#979797"></path>
                    <path d="M11.5145893,1.89093371 C12.5246614,0.882435732 13.6609925,0.252124495 14.9235826,0 C14.3528321,0.743717541 14.2265731,1.24796653 14.5448055,1.51274697 C14.863038,1.77752741 15.6079661,1.77752741 16.77959,1.51274697 C16.1270194,2.26912045 14.7139126,2.89943169 12.5402695,3.40368068 C10.3666264,3.90792967 10.024733,3.40368068 11.5145893,1.89093371 Z" id="Path-63" fill="url(#linearGradient-1)"></path>
                </g>
                <g id="Group-32" transform="translate(79.673333, 35.274682) scale(-1, -1) rotate(42.000000) translate(-79.673333, -35.274682) translate(71.173333, 30.280847)">
                    <path d="M0.337572329,8.32010833 C2.13672519,5.74142794 4.50411961,3.3348223 10.1645635,2.26912045 C10.6689741,2.17415417 13.3766601,1.52217173 13.9735453,1.51274697 C12.7864049,2.6234738 12.1523408,3.23083225 12.0713529,3.3348223 C10.6011553,5.22258623 9.2254796,6.50757365 7.94432573,7.18978454 C5.59060143,8.44313622 -1.63641648,11.1493767 0.337572329,8.32010833 Z" id="Path-61" fill="#1D202B"></path>
                    <path d="" id="Path-62" stroke="#979797"></path>
                    <path d="M11.5145893,1.89093371 C12.5246614,0.882435732 13.6609925,0.252124495 14.9235826,0 C14.3528321,0.743717541 14.2265731,1.24796653 14.5448055,1.51274697 C14.863038,1.77752741 15.6079661,1.77752741 16.77959,1.51274697 C16.1270194,2.26912045 14.7139126,2.89943169 12.5402695,3.40368068 C10.3666264,3.90792967 10.024733,3.40368068 11.5145893,1.89093371 Z" id="Path-63" fill="url(#linearGradient-1)"></path>
                </g>
                <g id="Group-32" transform="translate(52.393254, 23.946980) scale(-1, -1) rotate(47.000000) translate(-52.393254, -23.946980) translate(43.893254, 18.953145)">
                    <path d="M0.337572329,8.32010833 C2.13672519,5.74142794 4.50411961,3.3348223 10.1645635,2.26912045 C10.6689741,2.17415417 13.3766601,1.52217173 13.9735453,1.51274697 C12.7864049,2.6234738 12.1523408,3.23083225 12.0713529,3.3348223 C10.6011553,5.22258623 9.2254796,6.50757365 7.94432573,7.18978454 C5.59060143,8.44313622 -1.63641648,11.1493767 0.337572329,8.32010833 Z" id="Path-61" fill="#1D202B"></path>
                    <path d="" id="Path-62" stroke="#979797"></path>
                    <path d="M11.5145893,1.89093371 C12.5246614,0.882435732 13.6609925,0.252124495 14.9235826,0 C14.3528321,0.743717541 14.2265731,1.24796653 14.5448055,1.51274697 C14.863038,1.77752741 15.6079661,1.77752741 16.77959,1.51274697 C16.1270194,2.26912045 14.7139126,2.89943169 12.5402695,3.40368068 C10.3666264,3.90792967 10.024733,3.40368068 11.5145893,1.89093371 Z" id="Path-63" fill="url(#linearGradient-1)"></path>
                </g>
                <g id="Group-32" transform="translate(126.065099, 48.483382) scale(-1, -1) rotate(36.000000) translate(-126.065099, -48.483382) translate(117.565099, 43.489547)">
                    <path d="M0.337572329,8.32010833 C2.13672519,5.74142794 4.50411961,3.3348223 10.1645635,2.26912045 C10.6689741,2.17415417 13.3766601,1.52217173 13.9735453,1.51274697 C12.7864049,2.6234738 12.1523408,3.23083225 12.0713529,3.3348223 C10.6011553,5.22258623 9.2254796,6.50757365 7.94432573,7.18978454 C5.59060143,8.44313622 -1.63641648,11.1493767 0.337572329,8.32010833 Z" id="Path-61" fill="#1D202B"></path>
                    <path d="" id="Path-62" stroke="#979797"></path>
                    <path d="M11.5145893,1.89093371 C12.5246614,0.882435732 13.6609925,0.252124495 14.9235826,0 C14.3528321,0.743717541 14.2265731,1.24796653 14.5448055,1.51274697 C14.863038,1.77752741 15.6079661,1.77752741 16.77959,1.51274697 C16.1270194,2.26912045 14.7139126,2.89943169 12.5402695,3.40368068 C10.3666264,3.90792967 10.024733,3.40368068 11.5145893,1.89093371 Z" id="Path-63" fill="url(#linearGradient-1)"></path>
                </g>
                <g id="Group-32" transform="translate(135.682042, 46.424782) scale(-1, -1) rotate(40.000000) translate(-135.682042, -46.424782) translate(128.682042, 42.429715)">
                    <path d="M0.26418704,6.51138913 C1.67221971,4.49329143 3.52496317,2.60986093 7.95487577,1.7758334 C8.34963191,1.70151196 10.4686905,1.19126484 10.935818,1.18388893 C10.0067516,2.05315341 9.51052756,2.52847741 9.44714577,2.60986093 C8.29655635,4.0872414 7.21994056,5.09288372 6.21729839,5.6267879 C4.37525329,6.60767182 -1.28067377,8.72559915 0.26418704,6.51138913 Z" id="Path-61" fill="#1D202B"></path>
                    <path d="" id="Path-62" stroke="#979797"></path>
                    <path d="M9.01141773,1.47986117 C9.80190892,0.690601877 10.6912115,0.197314822 11.6793255,0 C11.2326512,0.582039815 11.1338398,0.976669459 11.3828913,1.18388893 C11.6319428,1.39110841 12.21493,1.39110841 13.131853,1.18388893 C12.6211456,1.7758334 11.5152359,2.26912045 9.81412395,2.6637501 C8.11301198,3.05837974 7.84544324,2.6637501 9.01141773,1.47986117 Z" id="Path-63" fill="url(#linearGradient-1)"></path>
                </g>
                <g id="Group-32" transform="translate(131.212195, 53.618709) scale(-1, -1) rotate(35.000000) translate(-131.212195, -53.618709) translate(124.212195, 49.623641)">
                    <path d="M0.256213433,6.51138913 C1.62174932,4.49329143 3.41857388,2.60986093 7.71478429,1.7758334 C8.09762603,1.70151196 10.1527279,1.19126484 10.6057567,1.18388893 C9.70473112,2.05315341 9.22348391,2.52847741 9.16201509,2.60986093 C8.04615238,4.0872414 7.00203066,5.09288372 6.02964991,5.6267879 C4.24320082,6.60767182 -1.24202089,8.72559915 0.256213433,6.51138913 Z" id="Path-61" fill="#1D202B"></path>
                    <path d="" id="Path-62" stroke="#979797"></path>
                    <path d="M9.01141773,1.47986117 C9.80190892,0.690601877 10.6912115,0.197314822 11.6793255,0 C11.2326512,0.582039815 11.1338398,0.976669459 11.3828913,1.18388893 C11.6319428,1.39110841 12.21493,1.39110841 13.131853,1.18388893 C12.6211456,1.7758334 11.5152359,2.26912045 9.81412395,2.6637501 C8.11301198,3.05837974 7.84544324,2.6637501 9.01141773,1.47986117 Z" id="Path-63" fill="url(#linearGradient-1)"></path>
                </g>
                <g id="Group-32" transform="translate(150.410836, 53.123932) scale(-1, -1) rotate(35.000000) translate(-150.410836, -53.123932) translate(143.910836, 49.628248)">
                    <path d="M0.739763281,5.64371311 C2.10529917,3.62561541 2.66101983,2.60986093 6.95723024,1.7758334 C7.34007198,1.70151196 9.39517383,1.19126484 9.84820267,1.18388893 C8.94717707,2.05315341 8.46592986,2.52847741 8.40446104,2.60986093 C7.28859833,4.0872414 6.24447661,5.09288372 5.27209586,5.6267879 C3.48564677,6.60767182 -0.75847104,7.85792313 0.739763281,5.64371311 Z" id="Path-61" fill="#1D202B"></path>
                    <path d="" id="Path-62" stroke="#979797"></path>
                    <path d="M8.25386368,1.47986117 C9.04435487,0.690601877 9.93365745,0.197314822 10.9217714,2.27093313e-13 C10.4750971,0.582039815 10.3762857,0.976669459 10.6253372,1.18388893 C10.8743887,1.39110841 11.457376,1.39110841 12.374299,1.18388893 C11.8635916,1.7758334 10.7576819,2.26912045 9.0565699,2.6637501 C7.35545793,3.05837974 7.08788919,2.6637501 8.25386368,1.47986117 Z" id="Path-63" fill="url(#linearGradient-1)"></path>
                </g>
                <g id="Group-32" transform="translate(108.745363, 52.367559) scale(-1, -1) rotate(35.000000) translate(-108.745363, -52.367559) translate(102.245363, 48.871875)">
                    <path d="M0.739763281,5.64371311 C2.10529917,3.62561541 2.66101983,2.60986093 6.95723024,1.7758334 C7.34007198,1.70151196 9.39517383,1.19126484 9.84820267,1.18388893 C8.94717707,2.05315341 8.46592986,2.52847741 8.40446104,2.60986093 C7.28859833,4.0872414 6.24447661,5.09288372 5.27209586,5.6267879 C3.48564677,6.60767182 -0.75847104,7.85792313 0.739763281,5.64371311 Z" id="Path-61" fill="#1D202B"></path>
                    <path d="" id="Path-62" stroke="#979797"></path>
                    <path d="M8.25386368,1.47986117 C9.04435487,0.690601877 9.93365745,0.197314822 10.9217714,2.27093313e-13 C10.4750971,0.582039815 10.3762857,0.976669459 10.6253372,1.18388893 C10.8743887,1.39110841 11.457376,1.39110841 12.374299,1.18388893 C11.8635916,1.7758334 10.7576819,2.26912045 9.0565699,2.6637501 C7.35545793,3.05837974 7.08788919,2.6637501 8.25386368,1.47986117 Z" id="Path-63" fill="url(#linearGradient-1)"></path>
                </g>
                <g id="Group-32" transform="translate(98.088324, 41.163289) scale(-1, -1) rotate(38.000000) translate(-98.088324, -41.163289) translate(91.588324, 37.667605)">
                    <path d="M0.739763281,5.64371311 C2.10529917,3.62561541 2.66101983,2.60986093 6.95723024,1.7758334 C7.34007198,1.70151196 9.39517383,1.19126484 9.84820267,1.18388893 C8.94717707,2.05315341 8.46592986,2.52847741 8.40446104,2.60986093 C7.28859833,4.0872414 6.24447661,5.09288372 5.27209586,5.6267879 C3.48564677,6.60767182 -0.75847104,7.85792313 0.739763281,5.64371311 Z" id="Path-61" fill="#1D202B"></path>
                    <path d="" id="Path-62" stroke="#979797"></path>
                    <path d="M8.25386368,1.47986117 C9.04435487,0.690601877 9.93365745,0.197314822 10.9217714,2.27093313e-13 C10.4750971,0.582039815 10.3762857,0.976669459 10.6253372,1.18388893 C10.8743887,1.39110841 11.457376,1.39110841 12.374299,1.18388893 C11.8635916,1.7758334 10.7576819,2.26912045 9.0565699,2.6637501 C7.35545793,3.05837974 7.08788919,2.6637501 8.25386368,1.47986117 Z" id="Path-63" fill="url(#linearGradient-1)"></path>
                </g>
                <g id="Group-32" transform="translate(107.953797, 35.887485) scale(-1, -1) rotate(33.000000) translate(-107.953797, -35.887485) translate(101.453797, 32.391801)">
                    <path d="M0.739763281,5.64371311 C2.10529917,3.62561541 2.66101983,2.60986093 6.95723024,1.7758334 C7.34007198,1.70151196 9.39517383,1.19126484 9.84820267,1.18388893 C8.94717707,2.05315341 8.46592986,2.52847741 8.40446104,2.60986093 C7.28859833,4.0872414 6.24447661,5.09288372 5.27209586,5.6267879 C3.48564677,6.60767182 -0.75847104,7.85792313 0.739763281,5.64371311 Z" id="Path-61" fill="#1D202B"></path>
                    <path d="" id="Path-62" stroke="#979797"></path>
                    <path d="M8.25386368,1.47986117 C9.04435487,0.690601877 9.93365745,0.197314822 10.9217714,2.27093313e-13 C10.4750971,0.582039815 10.3762857,0.976669459 10.6253372,1.18388893 C10.8743887,1.39110841 11.457376,1.39110841 12.374299,1.18388893 C11.8635916,1.7758334 10.7576819,2.26912045 9.0565699,2.6637501 C7.35545793,3.05837974 7.08788919,2.6637501 8.25386368,1.47986117 Z" id="Path-63" fill="url(#linearGradient-1)"></path>
                </g>
                <g id="Group-32" transform="translate(78.391918, 27.548566) scale(-1, -1) rotate(38.000000) translate(-78.391918, -27.548566) translate(71.891918, 24.052882)">
                    <path d="M0.739763281,5.64371311 C2.10529917,3.62561541 2.66101983,2.60986093 6.95723024,1.7758334 C7.34007198,1.70151196 9.39517383,1.19126484 9.84820267,1.18388893 C8.94717707,2.05315341 8.46592986,2.52847741 8.40446104,2.60986093 C7.28859833,4.0872414 6.24447661,5.09288372 5.27209586,5.6267879 C3.48564677,6.60767182 -0.75847104,7.85792313 0.739763281,5.64371311 Z" id="Path-61" fill="#1D202B"></path>
                    <path d="" id="Path-62" stroke="#979797"></path>
                    <path d="M8.25386368,1.47986117 C9.04435487,0.690601877 9.93365745,0.197314822 10.9217714,2.27093313e-13 C10.4750971,0.582039815 10.3762857,0.976669459 10.6253372,1.18388893 C10.8743887,1.39110841 11.457376,1.39110841 12.374299,1.18388893 C11.8635916,1.7758334 10.7576819,2.26912045 9.0565699,2.6637501 C7.35545793,3.05837974 7.08788919,2.6637501 8.25386368,1.47986117 Z" id="Path-63" fill="url(#linearGradient-1)"></path>
                </g>
                <g id="Group-32" transform="translate(75.990135, 22.445932) scale(-1, -1) rotate(43.000000) translate(-75.990135, -22.445932) translate(69.490135, 18.950248)">
                    <path d="M0.739763281,5.64371311 C2.10529917,3.62561541 2.66101983,2.60986093 6.95723024,1.7758334 C7.34007198,1.70151196 9.39517383,1.19126484 9.84820267,1.18388893 C8.94717707,2.05315341 8.46592986,2.52847741 8.40446104,2.60986093 C7.28859833,4.0872414 6.24447661,5.09288372 5.27209586,5.6267879 C3.48564677,6.60767182 -0.75847104,7.85792313 0.739763281,5.64371311 Z" id="Path-61" fill="#1D202B"></path>
                    <path d="" id="Path-62" stroke="#979797"></path>
                    <path d="M8.25386368,1.47986117 C9.04435487,0.690601877 9.93365745,0.197314822 10.9217714,2.27093313e-13 C10.4750971,0.582039815 10.3762857,0.976669459 10.6253372,1.18388893 C10.8743887,1.39110841 11.457376,1.39110841 12.374299,1.18388893 C11.8635916,1.7758334 10.7576819,2.26912045 9.0565699,2.6637501 C7.35545793,3.05837974 7.08788919,2.6637501 8.25386368,1.47986117 Z" id="Path-63" fill="url(#linearGradient-1)"></path>
                </g>
                <g id="Group-32" transform="translate(22.961351, 42.868016) scale(-1, -1) rotate(43.000000) translate(-22.961351, -42.868016) translate(16.461351, 39.372332)">
                    <path d="M0.739763281,5.64371311 C2.10529917,3.62561541 2.66101983,2.60986093 6.95723024,1.7758334 C7.34007198,1.70151196 9.39517383,1.19126484 9.84820267,1.18388893 C8.94717707,2.05315341 8.46592986,2.52847741 8.40446104,2.60986093 C7.28859833,4.0872414 6.24447661,5.09288372 5.27209586,5.6267879 C3.48564677,6.60767182 -0.75847104,7.85792313 0.739763281,5.64371311 Z" id="Path-61" fill="#1D202B"></path>
                    <path d="" id="Path-62" stroke="#979797"></path>
                    <path d="M8.25386368,1.47986117 C9.04435487,0.690601877 9.93365745,0.197314822 10.9217714,2.27093313e-13 C10.4750971,0.582039815 10.3762857,0.976669459 10.6253372,1.18388893 C10.8743887,1.39110841 11.457376,1.39110841 12.374299,1.18388893 C11.8635916,1.7758334 10.7576819,2.26912045 9.0565699,2.6637501 C7.35545793,3.05837974 7.08788919,2.6637501 8.25386368,1.47986117 Z" id="Path-63" fill="url(#linearGradient-1)"></path>
                </g>
                <g id="Group-32" transform="translate(29.021783, 36.060655) scale(-1, -1) rotate(43.000000) translate(-29.021783, -36.060655) translate(22.521783, 32.564970)">
                    <path d="M0.739763281,5.64371311 C2.10529917,3.62561541 2.66101983,2.60986093 6.95723024,1.7758334 C7.34007198,1.70151196 9.39517383,1.19126484 9.84820267,1.18388893 C8.94717707,2.05315341 8.46592986,2.52847741 8.40446104,2.60986093 C7.28859833,4.0872414 6.24447661,5.09288372 5.27209586,5.6267879 C3.48564677,6.60767182 -0.75847104,7.85792313 0.739763281,5.64371311 Z" id="Path-61" fill="#1D202B"></path>
                    <path d="" id="Path-62" stroke="#979797"></path>
                    <path d="M8.25386368,1.47986117 C9.04435487,0.690601877 9.93365745,0.197314822 10.9217714,2.27093313e-13 C10.4750971,0.582039815 10.3762857,0.976669459 10.6253372,1.18388893 C10.8743887,1.39110841 11.457376,1.39110841 12.374299,1.18388893 C11.8635916,1.7758334 10.7576819,2.26912045 9.0565699,2.6637501 C7.35545793,3.05837974 7.08788919,2.6637501 8.25386368,1.47986117 Z" id="Path-63" fill="url(#linearGradient-1)"></path>
                </g>
                <g id="Group-32" transform="translate(38.112432, 34.547908) scale(-1, -1) rotate(43.000000) translate(-38.112432, -34.547908) translate(31.612432, 31.052224)">
                    <path d="M0.739763281,5.64371311 C2.10529917,3.62561541 2.66101983,2.60986093 6.95723024,1.7758334 C7.34007198,1.70151196 9.39517383,1.19126484 9.84820267,1.18388893 C8.94717707,2.05315341 8.46592986,2.52847741 8.40446104,2.60986093 C7.28859833,4.0872414 6.24447661,5.09288372 5.27209586,5.6267879 C3.48564677,6.60767182 -0.75847104,7.85792313 0.739763281,5.64371311 Z" id="Path-61" fill="#1D202B"></path>
                    <path d="" id="Path-62" stroke="#979797"></path>
                    <path d="M8.25386368,1.47986117 C9.04435487,0.690601877 9.93365745,0.197314822 10.9217714,2.27093313e-13 C10.4750971,0.582039815 10.3762857,0.976669459 10.6253372,1.18388893 C10.8743887,1.39110841 11.457376,1.39110841 12.374299,1.18388893 C11.8635916,1.7758334 10.7576819,2.26912045 9.0565699,2.6637501 C7.35545793,3.05837974 7.08788919,2.6637501 8.25386368,1.47986117 Z" id="Path-63" fill="url(#linearGradient-1)"></path>
                </g>
                <g id="Group-32" transform="translate(69.202304, 29.219313) scale(-1, -1) rotate(42.000000) translate(-69.202304, -29.219313) translate(62.702304, 25.723628)">
                    <path d="M0.739763281,5.64371311 C2.10529917,3.62561541 2.66101983,2.60986093 6.95723024,1.7758334 C7.34007198,1.70151196 9.39517383,1.19126484 9.84820267,1.18388893 C8.94717707,2.05315341 8.46592986,2.52847741 8.40446104,2.60986093 C7.28859833,4.0872414 6.24447661,5.09288372 5.27209586,5.6267879 C3.48564677,6.60767182 -0.75847104,7.85792313 0.739763281,5.64371311 Z" id="Path-61" fill="#1D202B"></path>
                    <path d="" id="Path-62" stroke="#979797"></path>
                    <path d="M8.25386368,1.47986117 C9.04435487,0.690601877 9.93365745,0.197314822 10.9217714,2.27093313e-13 C10.4750971,0.582039815 10.3762857,0.976669459 10.6253372,1.18388893 C10.8743887,1.39110841 11.457376,1.39110841 12.374299,1.18388893 C11.8635916,1.7758334 10.7576819,2.26912045 9.0565699,2.6637501 C7.35545793,3.05837974 7.08788919,2.6637501 8.25386368,1.47986117 Z" id="Path-63" fill="url(#linearGradient-1)"></path>
                </g>
                <g id="Group-32" transform="translate(43.445466, 14.091843) scale(-1, -1) rotate(42.000000) translate(-43.445466, -14.091843) translate(36.945466, 10.596159)">
                    <path d="M0.739763281,5.64371311 C2.10529917,3.62561541 2.66101983,2.60986093 6.95723024,1.7758334 C7.34007198,1.70151196 9.39517383,1.19126484 9.84820267,1.18388893 C8.94717707,2.05315341 8.46592986,2.52847741 8.40446104,2.60986093 C7.28859833,4.0872414 6.24447661,5.09288372 5.27209586,5.6267879 C3.48564677,6.60767182 -0.75847104,7.85792313 0.739763281,5.64371311 Z" id="Path-61" fill="#1D202B"></path>
                    <path d="" id="Path-62" stroke="#979797"></path>
                    <path d="M8.25386368,1.47986117 C9.04435487,0.690601877 9.93365745,0.197314822 10.9217714,2.27093313e-13 C10.4750971,0.582039815 10.3762857,0.976669459 10.6253372,1.18388893 C10.8743887,1.39110841 11.457376,1.39110841 12.374299,1.18388893 C11.8635916,1.7758334 10.7576819,2.26912045 9.0565699,2.6637501 C7.35545793,3.05837974 7.08788919,2.6637501 8.25386368,1.47986117 Z" id="Path-63" fill="url(#linearGradient-1)"></path>
                </g>
                <g id="Group-32" transform="translate(27.536831, 30.732060) scale(-1, -1) rotate(42.000000) translate(-27.536831, -30.732060) translate(21.036831, 27.236375)">
                    <path d="M0.739763281,5.64371311 C2.10529917,3.62561541 2.66101983,2.60986093 6.95723024,1.7758334 C7.34007198,1.70151196 9.39517383,1.19126484 9.84820267,1.18388893 C8.94717707,2.05315341 8.46592986,2.52847741 8.40446104,2.60986093 C7.28859833,4.0872414 6.24447661,5.09288372 5.27209586,5.6267879 C3.48564677,6.60767182 -0.75847104,7.85792313 0.739763281,5.64371311 Z" id="Path-61" fill="#1D202B"></path>
                    <path d="" id="Path-62" stroke="#979797"></path>
                    <path d="M8.25386368,1.47986117 C9.04435487,0.690601877 9.93365745,0.197314822 10.9217714,2.27093313e-13 C10.4750971,0.582039815 10.3762857,0.976669459 10.6253372,1.18388893 C10.8743887,1.39110841 11.457376,1.39110841 12.374299,1.18388893 C11.8635916,1.7758334 10.7576819,2.26912045 9.0565699,2.6637501 C7.35545793,3.05837974 7.08788919,2.6637501 8.25386368,1.47986117 Z" id="Path-63" fill="url(#linearGradient-1)"></path>
                </g>
                <g id="Group-32" transform="translate(50.073015, 46.473694) scale(-1, -1) rotate(38.000000) translate(-50.073015, -46.473694) translate(44.073015, 42.978010)">
                    <path d="M1.05855941,4.87373075 C2.54343495,3.25755306 4.09221104,2.16542132 6.19967619,1.7758334 C6.58461382,1.70467348 8.63761978,1.19126484 9.09064862,1.18388893 C8.18962301,2.05315341 7.7083758,2.52847741 7.64690699,2.60986093 C6.53104428,4.0872414 5.64673887,4.90079065 4.67435813,5.43469483 C2.88790903,6.41557875 -0.86035011,6.96232246 1.05855941,4.87373075 Z" id="Path-61" fill="#1D202B"></path>
                    <path d="" id="Path-62" stroke="#979797"></path>
                    <path d="M7.49630963,1.47986117 C8.28680082,0.690601877 9.1761034,0.197314822 10.1642174,4.54186627e-13 C9.71754309,0.582039815 9.61873169,0.976669459 9.86778318,1.18388893 C10.1168347,1.39110841 10.6998219,1.39110841 11.6167449,1.18388893 C11.1060375,1.7758334 10.0001278,2.26912045 8.29901585,2.6637501 C6.59790387,3.05837974 6.33033513,2.6637501 7.49630963,1.47986117 Z" id="Path-63" fill="url(#linearGradient-1)"></path>
                </g>
            </g>
            <g id="::-Whiptail-stingrays" transform="translate(85.033207, 0.000000)">
                <g id="Path-66">
                    <use fill="#1D202B" fill-rule="evenodd" xlink:href="#path-2"></use>
                    <use fill="black" fill-opacity="1" filter="url(#filter-3)" xlink:href="#path-2"></use>
                </g>
                <path d="M87.4602361,45.3271354 C63.7262784,59.6946312 34.8144192,65.6149738 0.724658222,63.0881632" id="Path-67" stroke="#1D202B" transform="translate(44.092447, 54.491093) rotate(-6.000000) translate(-44.092447, -54.491093) "></path>
            </g>
            <g id="::-Whiptail-stingrays" transform="translate(0.944708, 15.127470)">
                <path d="M61.5016128,37.6606714 C41.5864011,48.4034289 21.2058072,51.9768702 0.359831277,48.3809952" id="Path-67" stroke="#1D202B" transform="translate(30.930722, 43.697170) rotate(4.000000) translate(-30.930722, -43.697170) "></path>
                <g id="Path-66">
                    <use fill="#1D202B" fill-rule="evenodd" xlink:href="#path-4"></use>
                    <use fill="black" fill-opacity="1" filter="url(#filter-5)" xlink:href="#path-4"></use>
                </g>
            </g>
            <g id="::-Whiptail-stingrays" transform="translate(78.215221, 64.291746)">
                <path d="M24.7753264,17.4124666 C17.4762513,21.6306494 9.29246156,24.0568066 0.223957307,24.6909382" id="Path-67" stroke="#1D202B" transform="translate(12.499642, 21.051702) rotate(4.000000) translate(-12.499642, -21.051702) "></path>
                <g id="Path-66">
                    <use fill="#1D202B" fill-rule="evenodd" xlink:href="#path-6"></use>
                    <use fill="black" fill-opacity="1" filter="url(#filter-7)" xlink:href="#path-6"></use>
                </g>
            </g>
        </g>
    </g>
</svg>