<?xml version="1.0" encoding="UTF-8"?>
<svg width="1773px" height="240px" viewBox="0 0 1773 240" version="1.1" xmlns="http://www.w3.org/2000/svg" xmlns:xlink="http://www.w3.org/1999/xlink">
    <!-- Generator: Sketch 52.5 (67469) - http://www.bohemiancoding.com/sketch -->
    <title>Horizontal-Logo</title>
    <desc>Created with Sketch.</desc>
    <g id="Page-1" stroke="none" stroke-width="1" fill="none" fill-rule="evenodd">
        <g id="Horizontal-Logo" fill-rule="nonzero">
            <path d="M354.518468,110.233394 C356.6619,108.602821 357.733616,105.924584 357.733616,102.192777 C357.733616,98.8134729 356.6619,96.3676128 354.518468,94.8512584 C352.376996,93.3388425 349.001189,92.578696 344.383211,92.578696 L319.334057,92.578696 L319.334057,112.681224 L344.383211,112.681224 C349.001189,112.681224 352.376996,111.865937 354.518468,110.233394 Z M372.567182,81.7377463 C375.202388,84.4238599 377.181242,87.5412484 378.497865,91.0918809 C379.818407,94.6484214 380.476719,98.3487201 380.476719,102.192777 C380.476719,106.038803 379.818407,109.739102 378.497865,113.295642 C377.181242,116.848244 375.202388,119.938063 372.567182,122.55722 C369.930016,125.180317 366.63258,127.277612 362.678791,128.853045 C358.723043,130.42454 354.159924,131.210287 349.001189,131.210287 L319.334057,131.210287 L319.334057,159.703966 C319.334057,160.523191 319.580924,161.190781 320.076617,161.716582 C320.568392,162.238444 321.859545,162.620486 323.948117,162.850894 L323.948117,164.950158 L290,164.950158 L290,162.850894 C292.084654,162.620486 293.377766,162.238444 293.8715,161.716582 C294.367193,161.190781 294.61406,160.523191 294.61406,159.703966 L294.61406,78.2461925 C294.61406,77.4309059 294.367193,76.7593775 293.8715,76.2335766 C293.377766,75.7077758 292.084654,75.3296718 290,75.0992647 L290,73 L349.001189,73 C354.159924,73 358.723043,73.7857473 362.678791,75.3611805 C366.63258,76.9326751 369.930016,79.0614792 372.567182,81.7377463 Z M457.802485,134.051384 C459.130864,131.268775 459.797013,128.104124 459.797013,124.561368 C459.797013,121.020582 459.130864,117.855931 457.802485,115.071353 C456.472147,112.286774 454.700975,109.96301 452.48505,108.084306 C450.267167,106.213479 447.706413,104.771958 444.804747,103.759742 C441.899163,102.747526 438.821163,102.239449 435.570749,102.239449 C432.322294,102.239449 429.242336,102.747526 426.34067,103.759742 C423.435086,104.771958 420.874332,106.213479 418.658407,108.084306 C416.444442,109.96301 414.669352,112.286774 413.344891,115.071353 C412.012594,117.855931 411.348404,121.020582 411.348404,124.561368 C411.348404,128.104124 412.012594,131.268775 413.344891,134.051384 C414.669352,136.835962 416.444442,139.163665 418.658407,141.034492 C420.874332,142.907288 423.435086,144.348809 426.34067,145.362994 C429.242336,146.37521 432.322294,146.881318 435.570749,146.881318 C438.821163,146.881318 441.899163,146.37521 444.804747,145.362994 C447.706413,144.348809 450.267167,142.907288 452.48505,141.034492 C454.700975,139.163665 456.472147,136.835962 457.802485,134.051384 Z M467.992602,94.1929242 C472.179543,97.6352458 475.50245,101.884977 477.965241,106.946056 C480.426073,112.009104 481.656489,117.879562 481.656489,124.561368 C481.656489,131.241205 480.426073,137.113632 477.965241,142.174711 C475.50245,147.235791 472.179543,151.487491 467.992602,154.927843 C463.805661,158.372134 458.932979,160.900704 453.370636,162.519462 C447.804376,164.140189 441.871733,164.949567 435.570749,164.949567 C429.269766,164.949567 423.335164,164.140189 417.772821,162.519462 C412.20852,160.900704 407.333878,158.372134 403.148896,154.927843 C398.963915,151.487491 395.641008,147.235791 393.182135,142.174711 C390.719344,137.113632 389.486969,131.241205 389.486969,124.561368 C389.486969,117.879562 390.719344,112.009104 393.182135,106.946056 C395.641008,101.884977 398.963915,97.6352458 403.148896,94.1929242 C407.333878,90.7545413 412.20852,88.1432608 417.772821,86.3728677 C423.335164,84.604444 429.269766,83.7143242 435.570749,83.7143242 C441.871733,83.7143242 447.804376,84.604444 453.370636,86.3728677 C458.932979,88.1432608 463.805661,90.7545413 467.992602,94.1929242 Z M566.439987,120.081821 C569.292671,121.852214 571.606558,124.181886 573.37773,127.064929 C575.146943,129.95191 576.032529,133.573437 576.032529,137.923602 C576.032529,141.26352 575.36834,144.554206 574.04192,147.791722 C572.711582,151.031206 570.446676,153.93985 567.251121,156.521591 C564.055566,159.103332 559.77654,161.153364 554.412083,162.671688 C549.051545,164.190012 542.390057,164.950158 534.419783,164.950158 C528.22068,164.950158 522.883653,164.644918 518.408701,164.036407 C513.92983,163.429865 510.121026,162.697289 506.972494,161.836708 C503.823961,160.978097 501.339618,160.19235 499.519464,159.483405 C497.697352,158.776429 497.560203,158.419988 496.674617,158.419988 C496.086839,158.419988 495.567635,158.624794 495.124842,159.026529 C494.684008,159.432204 494.215745,159.889079 493.725929,160.393218 L491.952798,159.940281 L498.02063,132.911755 L499.495953,133.671902 C499.298068,134.278443 499.202064,135.339891 499.202064,136.860184 C499.202064,137.8724 500.111161,139.008681 501.931315,140.276905 C503.749509,141.54119 507.172338,143.691657 510.812645,144.910648 C514.946686,146.297029 524.159132,147.3506 533.97699,147.791722 C541.345771,148.124532 546.763128,146.90554 550.209468,145.135147 C553.653849,143.362785 555.376039,140.804675 555.376039,137.466726 C555.376039,135.645132 553.873286,134.353276 550.873657,133.59313 C547.868151,132.836922 544.110288,132.228411 539.584395,131.773505 C535.058502,131.316629 530.187779,130.810521 524.976144,130.255181 C519.760591,129.699841 514.889868,128.687625 510.367893,127.218533 C505.838082,125.749442 502.078259,123.626546 499.078631,120.839998 C496.075083,118.057389 494.576249,114.234995 494.576249,109.376752 C494.576249,105.528757 495.436364,102.041142 497.158555,98.9001217 C498.880745,95.7630403 501.292596,93.0808653 504.388228,90.8535967 C507.487779,88.626328 511.25152,86.8815357 515.677491,85.6152813 C520.10738,84.3490269 525.023166,83.714915 530.436605,83.714915 C535.454272,83.714915 540.123192,84.045756 544.453159,84.70153 C548.783126,85.3612427 552.6174,86.0957884 555.961858,86.9031979 C559.308276,87.7165153 562.11002,88.451061 564.374926,89.1068351 C566.639832,89.7665477 568.2621,90.0914808 569.245649,90.0914808 C570.227239,90.0914808 571.016821,89.8669816 571.606558,89.410106 C572.196296,88.9532304 572.735093,88.423491 573.230786,87.8169492 L574.853054,88.423491 L564.670774,109.528388 L562.899602,108.618575 L562.899602,106.946647 C562.899602,106.036834 561.941523,105.10339 560.021448,104.138437 C558.103331,103.177423 555.669929,102.316842 552.717322,101.558665 C549.766675,100.796549 546.471198,100.166376 542.830891,99.6582989 C539.190583,99.1541603 535.648239,98.9001217 532.205818,98.9001217 C525.810789,98.9001217 521.335837,99.6582989 518.777042,101.178592 C516.216288,102.696916 514.942768,104.315673 514.942768,106.036834 C514.942768,107.759964 515.828354,109.047881 517.597567,109.906492 C519.368739,110.769041 521.676748,111.405123 524.531392,111.806858 C527.384076,112.210563 530.632531,112.541404 534.272838,112.793473 C537.909227,113.047512 541.651415,113.425616 545.485689,113.931724 C549.323882,114.437832 553.062152,115.144807 556.7005,116.058558 C560.340807,116.968371 563.587303,118.311428 566.439987,120.081821 Z M662.750014,84.3074748 C663.143825,83.7521346 663.437714,82.6178227 663.6356,80.8986312 L665.41069,80.8986312 L665.41069,107.265475 L663.6356,107.265475 C663.437714,105.550222 663.143825,104.411972 662.750014,103.856631 C662.356202,103.303261 661.764505,103.023621 660.976882,103.023621 L613.54709,103.023621 L613.54709,115.599517 L641.029645,115.599517 C642.506928,115.599517 643.566888,115.274583 644.205607,114.614871 C644.846286,113.961066 645.265568,113.126086 645.463453,112.11584 L647.236584,112.11584 L647.236584,135.755215 L645.463453,135.755215 C645.265568,134.746938 644.846286,133.911958 644.205607,133.254215 C643.566888,132.596471 642.506928,132.269569 641.029645,132.269569 L613.54709,132.269569 L613.54709,146.363788 L660.976882,146.363788 C661.764505,146.363788 662.356202,146.084149 662.750014,145.530778 C663.143825,144.975438 663.437714,143.738723 663.6356,141.816694 L665.41069,141.816694 L665.41069,167.730601 L663.6356,167.730601 C663.437714,166.417084 663.143825,165.607705 662.750014,165.306403 C662.356202,165.003132 661.764505,164.851497 660.976882,164.851497 L587.247928,164.851497 L587.247928,163.033841 C589.117063,162.831004 590.278905,162.504101 590.719738,162.049195 C591.164491,161.592319 591.383928,161.011378 591.383928,160.306372 L591.383928,89.6856099 C591.383928,88.9806035 591.164491,88.3976932 590.719738,87.9447562 C590.278905,87.4898499 589.117063,87.1609782 587.247928,86.9601104 L587.247928,85.1424544 L660.976882,85.1424544 C661.764505,85.1424544 662.356202,84.862815 662.750014,84.3074748 Z M679.681165,87.2576704 L679.681165,85.4439529 L710.118286,85.4439529 L710.118286,87.2576704 C708.245232,87.4605074 707.089268,87.7874098 706.644516,88.2403468 C706.203682,88.6932839 705.980326,89.2722556 705.980326,89.9772619 L705.980326,160.41488 C705.980326,161.119886 706.203682,161.700827 706.644516,162.153764 C707.089268,162.608671 708.245232,162.935573 710.118286,163.136441 L710.118286,164.950158 L679.681165,164.950158 L679.681165,163.136441 C681.54834,162.935573 682.710182,162.608671 683.151016,162.153764 C683.595768,161.700827 683.817165,161.119886 683.817165,160.41488 L683.817165,89.9772619 C683.817165,89.2722556 683.595768,88.6932839 683.151016,88.2403468 C682.710182,87.7874098 681.54834,87.4605074 679.681165,87.2576704 Z M783.801394,140.991955 C787.247734,136.909614 788.971884,131.647667 788.971884,125.196268 C788.971884,118.746838 787.247734,113.480953 783.801394,109.400581 C780.349176,105.322178 774.733934,103.280023 766.955667,103.280023 L748.189864,103.280023 L748.189864,147.114482 L766.955667,147.114482 C774.733934,147.114482 780.349176,145.072327 783.801394,140.991955 Z M801.085995,96.856194 C804.33641,100.432427 806.77569,104.638834 808.401876,109.475414 C810.026104,114.313963 810.839197,119.554248 810.839197,125.196268 C810.839197,130.336119 809.975163,135.298733 808.252973,140.086081 C806.530782,144.873428 803.919087,149.103467 800.421806,152.782103 C796.924525,156.46074 792.58868,159.408769 787.420149,161.626191 C782.249659,163.843613 776.213176,164.950355 769.320495,164.950355 L721.890702,164.950355 L721.890702,163.136638 C723.757878,162.93577 724.91972,162.608868 725.362513,162.153961 C725.805306,161.701024 726.028662,161.120083 726.028662,160.415077 L726.028662,89.9774589 C726.028662,89.2724525 725.805306,88.6915115 725.362513,88.2405438 C724.91972,87.7856374 723.757878,87.4587351 721.890702,87.2578673 L721.890702,85.4441499 L770.944723,85.4441499 C777.741399,85.4441499 783.650531,86.4524271 788.676036,88.4670123 C793.699581,90.4835668 797.837541,93.2779914 801.085995,96.856194 Z M893.200461,134.051384 C894.52688,131.268775 895.193029,128.104124 895.193029,124.561368 C895.193029,121.020582 894.52688,117.855931 893.200461,115.071353 C891.868163,112.286774 890.096991,109.96301 887.881067,108.084306 C885.665142,106.213479 883.104388,104.771958 880.200763,103.759742 C877.295179,102.747526 874.219139,102.239449 870.966765,102.239449 C867.718311,102.239449 864.640311,102.747526 861.736686,103.759742 C858.831102,104.771958 856.272307,106.213479 854.056383,108.084306 C851.840459,109.96301 850.067327,112.286774 848.740907,115.071353 C847.410569,117.855931 846.74442,121.020582 846.74442,124.561368 C846.74442,128.104124 847.410569,131.268775 848.740907,134.051384 C850.067327,136.835962 851.840459,139.163665 854.056383,141.034492 C856.272307,142.907288 858.831102,144.348809 861.736686,145.362994 C864.640311,146.37521 867.718311,146.881318 870.966765,146.881318 C874.219139,146.881318 877.295179,146.37521 880.200763,145.362994 C883.104388,144.348809 885.665142,142.907288 887.881067,141.034492 C890.096991,139.163665 891.868163,136.835962 893.200461,134.051384 Z M903.388618,94.1929242 C907.575559,97.6352458 910.898466,101.884977 913.361257,106.946056 C915.822089,112.009104 917.052505,117.879562 917.052505,124.561368 C917.052505,131.241205 915.822089,137.113632 913.361257,142.174711 C910.898466,147.235791 907.575559,151.487491 903.388618,154.927843 C899.201677,158.372134 894.328995,160.900704 888.766653,162.519462 C883.200392,164.140189 877.269708,164.949567 870.966765,164.949567 C864.665782,164.949567 858.73118,164.140189 853.168838,162.519462 C847.606495,160.900704 842.729894,158.372134 838.546872,154.927843 C834.36189,151.487491 831.037024,147.235791 828.578151,142.174711 C826.11536,137.113632 824.884944,131.241205 824.884944,124.561368 C824.884944,117.879562 826.11536,112.009104 828.578151,106.946056 C831.037024,101.884977 834.36189,97.6352458 838.546872,94.1929242 C842.729894,90.7545413 847.606495,88.1432608 853.168838,86.3728677 C858.73118,84.604444 864.665782,83.7143242 870.966765,83.7143242 C877.269708,83.7143242 883.200392,84.604444 888.766653,86.3728677 C894.328995,88.1432608 899.201677,90.7545413 903.388618,94.1929242 Z M989.416639,87.2576704 L989.416639,85.4439529 L1016.4564,85.4439529 L1016.4564,87.2576704 C1014.58531,87.4605074 1013.42738,87.7874098 1012.98459,88.2403468 C1012.5418,88.6932839 1012.31844,89.2722556 1012.31844,89.9772619 L1012.31844,160.41488 C1012.31844,161.119886 1012.5418,161.700827 1012.98459,162.153764 C1013.42738,162.608671 1014.58531,162.935573 1016.4564,163.136441 L1016.4564,164.950158 L988.384108,164.950158 L988.384108,163.136441 C989.761469,163.136441 990.674484,162.984805 991.117277,162.681534 C991.56007,162.380233 991.781467,161.976528 991.781467,161.474359 C991.781467,161.171088 991.634522,160.794953 991.338674,160.340047 C991.040866,159.885141 990.402147,159.10727 989.416639,157.998559 C988.43113,156.887879 986.979318,155.302599 985.057283,153.234843 C983.139166,151.171026 980.601923,148.398263 977.451431,144.922464 C974.295062,141.446664 970.405928,137.112254 965.776194,131.923171 C961.14646,126.732118 955.582159,120.410693 949.079371,112.954955 L949.079371,160.41488 C949.079371,161.119886 949.302727,161.700827 949.743561,162.153764 C950.190272,162.608671 951.344277,162.935573 953.217331,163.136441 L953.217331,164.950158 L925.143078,164.950158 L925.143078,163.136441 C927.012213,162.935573 928.174055,162.608671 928.616848,162.153764 C929.059641,161.700827 929.282997,161.119886 929.282997,160.41488 L929.282997,89.9772619 C929.282997,89.2722556 929.059641,88.6932839 928.616848,88.2403468 C928.174055,87.7874098 927.012213,87.4605074 925.143078,87.2576704 L925.143078,85.4439529 L960.752649,85.4439529 L960.752649,87.2576704 C959.077481,87.3581043 957.970498,87.5845728 957.429742,87.937076 C956.885067,88.2915484 956.616649,88.720854 956.616649,89.2230233 C956.616649,89.4258603 957.257327,90.3337037 958.536724,91.9426148 C959.816122,93.5534953 961.493249,95.5700498 963.56027,97.9883397 C965.62925,100.40663 967.968607,103.104559 970.578343,106.07622 C973.18612,109.047881 975.825244,112.02348 978.483962,114.995141 C981.142679,117.966802 983.703433,120.788797 986.166225,123.457187 C988.629016,126.127546 990.746977,128.42177 992.520108,130.335922 L992.520108,89.9772619 C992.520108,88.2659476 991.487578,87.3581043 989.416639,87.2576704 Z M1136.23113,75.0996586 L1136.23113,73.0003939 L1166.39199,73.0003939 L1166.39199,75.0996586 C1164.30146,75.3300657 1163.01423,75.7081697 1162.51853,76.2339705 C1162.02284,76.7597713 1161.77597,77.4312997 1161.77597,78.2465864 L1161.77597,159.70436 C1161.77597,160.523585 1162.02284,161.191175 1162.51853,161.715006 C1163.01423,162.238838 1164.30146,162.618911 1166.39199,162.851287 L1166.39199,164.950552 L1135.07712,164.950552 L1135.07712,162.851287 C1136.61514,162.851287 1137.632,162.67799 1138.12769,162.327456 C1138.62143,161.976922 1138.87025,161.516108 1138.87025,160.929259 C1138.87025,160.578725 1138.70176,160.143512 1138.37456,159.61968 C1138.0454,159.09191 1137.33027,158.191944 1136.23113,156.907966 C1135.13002,155.629896 1133.51167,153.792547 1131.3702,151.401827 C1129.22873,149.015045 1126.39564,145.809039 1122.88464,141.787746 C1119.36777,137.768422 1115.02604,132.758544 1109.86339,126.754174 C1104.69486,120.753743 1098.49184,113.441764 1091.24061,104.814298 L1091.24061,159.70436 C1091.24061,160.523585 1091.48748,161.191175 1091.98317,161.715006 C1092.47495,162.238838 1093.7661,162.618911 1095.85467,162.851287 L1095.85467,164.950552 L1064.54176,164.950552 L1064.54176,162.851287 C1066.62838,162.618911 1067.92149,162.238838 1068.41326,161.715006 C1068.90896,161.191175 1069.15582,160.523585 1069.15582,159.70436 L1069.15582,78.2465864 C1069.15582,77.4312997 1068.90896,76.7597713 1068.41326,76.2339705 C1067.92149,75.7081697 1066.62838,75.3300657 1064.54176,75.0996586 L1064.54176,73.0003939 L1104.2599,73.0003939 L1104.2599,75.0996586 C1102.38881,75.2138775 1101.15448,75.4777626 1100.55102,75.8834366 C1099.94365,76.2930492 1099.64389,76.7873414 1099.64389,77.3702517 C1099.64389,77.6026281 1100.35706,78.6542297 1101.78928,80.5171795 C1103.21366,82.3801292 1105.08475,84.7117704 1107.3908,87.5081643 C1109.69685,90.3084968 1112.30659,93.4239159 1115.21609,96.8622988 C1118.12951,100.300682 1121.07036,103.741034 1124.03473,107.175478 C1127.00301,110.611892 1129.85569,113.876977 1132.60453,116.964826 C1135.34946,120.052675 1137.71429,122.70728 1139.69314,124.918795 L1139.69314,78.2465864 C1139.69314,76.2654791 1138.53914,75.2138775 1136.23113,75.0996586 Z M1253.39827,84.5768739 C1253.79208,84.0215337 1254.08793,82.8872218 1254.28386,81.1680303 L1256.05895,81.1680303 L1256.05895,107.534874 L1254.28386,107.534874 C1254.08793,105.819621 1253.79208,104.681371 1253.39827,104.126031 C1253.00642,103.57069 1252.41276,103.291051 1251.6271,103.291051 L1204.19731,103.291051 L1204.19731,115.868916 L1231.6779,115.868916 C1233.15715,115.868916 1234.21515,115.543983 1234.85582,114.88427 C1235.49454,114.230465 1235.91383,113.395486 1236.11367,112.385239 L1237.88484,112.385239 L1237.88484,136.022645 L1236.11367,136.022645 C1235.91383,135.014368 1235.49454,134.181357 1234.85582,133.523614 C1234.21515,132.865871 1233.15715,132.538968 1231.6779,132.538968 L1204.19731,132.538968 L1204.19731,146.633187 L1251.6271,146.633187 C1252.41276,146.633187 1253.00642,146.353548 1253.39827,145.800177 C1253.79208,145.244837 1254.08793,144.006152 1254.28386,142.084124 L1256.05895,142.084124 L1256.05895,168 L1254.28386,168 C1254.08793,166.684513 1253.79208,165.877104 1253.39827,165.575802 C1253.00642,165.272531 1252.41276,165.118927 1251.6271,165.118927 L1177.89815,165.118927 L1177.89815,163.30324 C1179.76728,163.100403 1180.92716,162.7735 1181.368,162.318594 C1181.81471,161.861718 1182.03415,161.280777 1182.03415,160.575771 L1182.03415,89.9550089 C1182.03415,89.2500026 1181.81471,88.665123 1181.368,88.2141553 C1180.92716,87.7572796 1179.76728,87.4303773 1177.89815,87.2295095 L1177.89815,85.4098842 L1251.6271,85.4098842 C1252.41276,85.4098842 1253.00642,85.1302448 1253.39827,84.5768739 Z M1346.51294,84.4055455 C1346.90283,83.8521746 1347.19672,82.7158934 1347.39265,80.996702 L1349.15402,80.996702 L1349.15402,107.970087 L1347.39265,107.970087 C1347.19672,106.254835 1346.90283,105.116584 1346.51294,104.559275 C1346.12305,104.005904 1345.53723,103.728234 1344.75744,103.728234 L1319.55938,103.728234 L1319.55938,160.404443 C1319.55938,161.109449 1319.77686,161.69039 1320.21574,162.147266 C1320.65657,162.602172 1321.80274,162.929074 1323.66208,163.131911 L1323.66208,164.949567 L1293.48162,164.949567 L1293.48162,163.131911 C1295.33312,162.929074 1296.48517,162.602172 1296.92208,162.147266 C1297.36292,161.69039 1297.58235,161.109449 1297.58235,160.404443 L1297.58235,103.728234 L1272.3843,103.728234 C1271.60255,103.728234 1271.01477,104.005904 1270.62488,104.559275 C1270.23499,105.116584 1269.94306,106.254835 1269.74517,107.970087 L1267.98967,107.970087 L1267.98967,80.996702 L1269.74517,80.996702 C1269.94306,82.7158934 1270.23499,83.8521746 1270.62488,84.4055455 C1271.01477,84.9608857 1271.60255,85.2405251 1272.3843,85.2405251 L1344.75744,85.2405251 C1345.53723,85.2405251 1346.12305,84.9608857 1346.51294,84.4055455 Z M1462.70065,87.0575904 L1462.70065,85.2399343 L1486.17456,85.2399343 L1486.17456,87.0575904 C1485.432,87.1580242 1484.89516,87.4612951 1484.56796,87.9654338 C1484.24077,88.473511 1483.98606,89.1312543 1483.79993,89.9366945 C1483.70589,90.2399654 1483.33363,91.4786498 1482.68315,93.6507783 C1482.02876,95.8229068 1481.19216,98.5503755 1480.16942,101.831215 C1479.14081,105.115993 1477.97897,108.855678 1476.6741,113.04633 C1475.36727,117.238952 1474.0193,121.482775 1472.62235,125.773861 C1471.2254,130.072824 1469.89702,134.287108 1468.63917,138.430497 C1467.38133,142.573887 1466.23908,146.286001 1465.21438,149.566841 C1464.18969,152.851619 1463.3766,155.529855 1462.76922,157.597612 C1462.16381,159.671275 1461.86209,160.809526 1461.86209,161.012363 C1461.86209,161.920206 1462.16381,162.477516 1462.76922,162.674445 C1463.3766,162.881221 1464.00552,163.030887 1464.65599,163.131321 L1464.65599,164.950946 L1435.59035,164.950946 L1435.59035,163.131321 C1437.45361,162.830019 1438.38622,162.123043 1438.38622,161.012363 C1438.38622,159.799279 1437.91796,157.29631 1436.98731,153.509362 C1436.0547,149.720446 1434.91049,145.301355 1433.56644,140.250123 C1432.21259,135.196921 1430.76861,129.818786 1429.23255,124.10981 C1427.69649,118.404772 1426.27211,113.022699 1424.9692,107.969497 L1424.69098,107.969497 C1423.57029,112.416157 1422.17529,117.544192 1420.49621,123.351633 C1418.82104,129.161042 1417.18897,134.742015 1415.60785,140.096518 C1414.02085,145.451022 1412.67288,150.100519 1411.5561,154.039102 C1410.4354,157.979654 1409.87897,160.305387 1409.87897,161.012363 C1409.87897,162.424345 1410.90366,163.131321 1412.95305,163.131321 L1412.95305,164.950946 L1382.76867,164.950946 L1382.76867,163.131321 C1383.51319,162.928484 1384.16563,162.702015 1384.72598,162.447977 C1385.28241,162.197876 1385.56454,161.565734 1385.56454,160.555487 C1385.56454,160.35462 1385.2589,159.243939 1384.65544,157.219508 C1384.04807,155.202953 1383.23302,152.550317 1382.20833,149.265539 C1381.18363,145.9847 1380.04334,142.243046 1378.78746,138.050424 C1377.52765,133.861741 1376.22278,129.592317 1374.87481,125.246091 C1373.52096,120.903803 1372.19454,116.608778 1370.88967,112.364955 C1369.58677,108.121132 1368.42101,104.308584 1367.39631,100.923372 C1366.37162,97.540129 1365.53305,94.7358579 1364.88258,92.5125278 C1364.22819,90.291167 1363.85397,89.0268819 1363.76384,88.723611 C1363.48367,87.6129306 1363.0154,87.0575904 1362.36493,87.0575904 L1362.36493,85.2399343 L1387.93917,85.2399343 L1387.93917,87.0575904 C1387.1006,87.2604274 1386.4031,87.4888652 1385.8408,87.7389652 C1385.28241,87.9930038 1385.00419,88.5227432 1385.00419,89.3281835 C1385.00419,89.6353929 1385.2589,90.6929025 1385.77222,92.5125278 C1386.28359,94.3282146 1386.96149,96.6539478 1387.80006,99.4838197 C1388.63862,102.311722 1389.56731,105.419264 1390.592,108.804476 C1391.61866,112.189688 1392.64139,115.570962 1393.66804,118.956174 C1394.69274,122.343355 1395.64494,125.549362 1396.53444,128.578132 C1397.41807,131.608872 1398.13908,134.135473 1398.69943,136.157935 L1398.9796,136.157935 C1399.53799,134.237876 1400.23549,131.788077 1401.07405,128.804601 C1401.91262,125.829001 1402.82171,122.644657 1403.80134,119.261414 C1404.77901,115.876202 1405.75669,112.467358 1406.73436,109.028976 C1407.71399,105.5965 1408.59761,102.463358 1409.38916,99.6354551 C1410.17874,96.8075525 1410.80962,94.4581878 1411.27396,92.5893302 C1411.74027,90.7204725 1411.97342,89.6353929 1411.97342,89.3281835 C1411.97342,88.5227432 1411.62663,87.9930038 1410.92522,87.7389652 C1410.22772,87.4888652 1409.59684,87.2604274 1409.03845,87.0575904 L1409.03845,85.2399343 L1442.29886,85.2399343 L1442.29886,87.0575904 C1441.64447,87.2604274 1441.08608,87.4888652 1440.61978,87.7389652 C1440.15347,87.9930038 1439.92228,88.5227432 1439.92228,89.3281835 C1439.92228,89.4325559 1440.15347,90.4428024 1440.61978,92.3589231 C1441.08608,94.2809516 1441.68953,96.7051494 1442.43601,99.6354551 C1443.18053,102.565761 1444.02105,105.824938 1444.9517,109.411018 C1445.88431,112.997098 1446.7699,116.482744 1447.60846,119.865987 C1448.44703,123.251199 1449.23661,126.407973 1449.98309,129.338279 C1450.72761,132.268584 1451.28795,134.539177 1451.65825,136.157935 L1451.94235,136.157935 C1452.2186,134.944852 1452.75544,133.001161 1453.54698,130.322924 C1454.33656,127.646657 1455.24566,124.639549 1456.27231,121.307508 C1457.29701,117.971528 1458.34325,114.513452 1459.41497,110.923434 C1460.48669,107.339323 1461.48787,104.028944 1462.41852,100.998205 C1463.35113,97.9674652 1464.12111,95.3896627 1464.72457,93.270705 C1465.32998,91.1478088 1465.63562,89.9366945 1465.63562,89.6353929 C1465.63562,88.723611 1465.32998,88.1170692 1464.72457,87.8157676 C1464.12111,87.5105274 1463.44517,87.2604274 1462.70065,87.0575904 Z M1555.58001,134.051384 C1556.90839,131.268775 1557.57258,128.104124 1557.57258,124.561368 C1557.57258,121.020582 1556.90839,117.855931 1555.58001,115.071353 C1554.24771,112.286774 1552.47654,109.96301 1550.25866,108.084306 C1548.04077,106.213479 1545.48002,104.771958 1542.5764,103.759742 C1539.66885,102.747526 1536.59281,102.239449 1533.34044,102.239449 C1530.09002,102.239449 1527.01007,102.747526 1524.1084,103.759742 C1521.1989,104.771958 1518.6401,106.213479 1516.42418,108.084306 C1514.20629,109.96301 1512.43316,112.286774 1511.10478,115.071353 C1509.77445,117.855931 1509.1083,121.020582 1509.1083,124.561368 C1509.1083,128.104124 1509.77445,131.268775 1511.10478,134.051384 C1512.43316,136.835962 1514.20629,139.163665 1516.42418,141.034492 C1518.6401,142.907288 1521.1989,144.348809 1524.1084,145.362994 C1527.01007,146.37521 1530.09002,146.881318 1533.34044,146.881318 C1536.59281,146.881318 1539.66885,146.37521 1542.5764,145.362994 C1545.48002,144.348809 1548.04077,142.907288 1550.25866,141.034492 C1552.47654,139.163665 1554.24771,136.835962 1555.58001,134.051384 Z M1565.77209,94.1929242 C1569.96099,97.6352458 1573.28389,101.884977 1575.74864,106.946056 C1578.20948,112.009104 1579.43989,117.879562 1579.43989,124.561368 C1579.43989,131.241205 1578.20948,137.113632 1575.74864,142.174711 C1573.28389,147.235791 1569.96099,151.487491 1565.77209,154.927843 C1561.58319,158.372134 1556.70855,160.900704 1551.14424,162.519462 C1545.57994,164.140189 1539.64338,164.949567 1533.34044,164.949567 C1527.03554,164.949567 1521.09897,164.140189 1515.53663,162.519462 C1509.97037,160.900704 1505.09377,158.372134 1500.90879,154.927843 C1496.72185,151.487491 1493.39698,147.235791 1490.93615,142.174711 C1488.47336,137.113632 1487.24098,131.241205 1487.24098,124.561368 C1487.24098,117.879562 1488.47336,112.009104 1490.93615,106.946056 C1493.39698,101.884977 1496.72185,97.6352458 1500.90879,94.1929242 C1505.09377,90.7545413 1509.97037,88.1432608 1515.53663,86.3728677 C1521.09897,84.604444 1527.03554,83.7143242 1533.34044,83.7143242 C1539.64338,83.7143242 1545.57994,84.604444 1551.14424,86.3728677 C1556.70855,88.1432608 1561.58319,90.7545413 1565.77209,94.1929242 Z M1647.02813,116.37975 C1648.6504,114.71176 1649.45957,112.768069 1649.45957,110.546708 C1649.45957,108.325348 1648.6504,106.379688 1647.02813,104.711698 C1645.40782,103.045677 1642.43562,102.210698 1638.11153,102.210698 L1613.35039,102.210698 L1613.35039,118.882719 L1638.11153,118.882719 C1642.43562,118.882719 1645.40782,118.049709 1647.02813,116.37975 Z M1668.4742,160.403261 C1669.65368,162.222886 1671.0761,163.13073 1672.74931,163.13073 L1672.74931,164.950355 L1642.09079,164.950355 L1642.09079,163.13073 C1644.25186,163.030296 1645.33533,162.124422 1645.33533,160.403261 C1645.33533,160.202393 1644.94152,159.495418 1644.15585,158.280365 C1643.36823,157.069251 1642.38468,155.606067 1641.20717,153.886876 C1640.02965,152.171623 1638.72478,150.326397 1637.3004,148.355136 C1635.87602,146.385844 1634.50062,144.491386 1633.1742,142.675699 C1631.84582,140.856074 1630.69181,139.239285 1629.71022,137.825334 C1628.72863,136.411383 1628.08991,135.452338 1627.79407,134.94623 L1613.35039,134.94623 L1613.35039,160.403261 C1613.35039,161.110237 1613.57179,161.691178 1614.01066,162.146084 C1614.45542,162.60296 1615.60942,162.929862 1617.47856,163.13073 L1617.47856,164.950355 L1587.11393,164.950355 L1587.11393,163.13073 C1588.97914,162.929862 1590.13707,162.60296 1590.5779,162.146084 C1591.02069,161.691178 1591.24013,161.110237 1591.24013,160.403261 L1591.24013,89.7844683 C1591.24013,89.0794619 1591.02069,88.4965517 1590.5779,88.0416453 C1590.13707,87.5887083 1588.97914,87.2598366 1587.11393,87.0569996 L1587.11393,85.2393435 L1641.06022,85.2393435 C1651.96743,85.2393435 1659.87501,87.2834681 1664.78883,91.3756558 C1669.7007,95.4678435 1672.15761,101.808962 1672.15761,110.395073 C1672.15761,117.364396 1670.17092,122.821302 1666.18971,126.761855 C1662.21045,130.700438 1657.17514,133.530309 1651.08184,135.245562 L1668.4742,160.403261 Z M1770.49019,162.829231 C1771.17789,163.032068 1772.01449,163.130533 1773,163.130533 L1773,164.950158 L1739.17532,164.950158 L1739.17532,163.130533 C1740.0609,163.130533 1740.7486,163.053731 1741.2443,162.904064 C1741.73411,162.752429 1741.98294,162.171488 1741.98294,161.161241 C1741.98294,160.857971 1741.53819,159.950127 1740.6526,158.433773 C1739.76505,156.919388 1738.63456,155.048561 1737.25524,152.825231 C1735.87396,150.605839 1734.34966,148.228904 1732.67449,145.706242 C1731.00128,143.179641 1729.42603,140.755443 1727.94875,138.42971 C1726.47147,136.105946 1725.14309,134.087422 1723.95969,132.368231 C1722.78022,130.649039 1721.99064,129.489126 1721.59683,128.882585 L1707.1218,142.218627 L1707.1218,160.405034 C1707.1218,161.11004 1707.34516,161.690981 1707.78599,162.145887 C1708.23075,162.602763 1709.38671,162.929665 1711.25976,163.130533 L1711.25976,164.950158 L1680.83048,164.950158 L1680.83048,163.130533 C1682.69766,162.929665 1683.8595,162.602763 1684.30229,162.145887 C1684.74508,161.690981 1684.96648,161.11004 1684.96648,160.405034 L1684.96648,89.7842714 C1684.96648,89.079265 1684.74508,88.4963547 1684.30229,88.0414484 C1683.8595,87.5885114 1682.69766,87.2596397 1680.83048,87.0568027 L1680.83048,85.2411159 L1711.25976,85.2411159 L1711.25976,87.0568027 C1709.38671,87.2596397 1708.23075,87.5885114 1707.78599,88.0414484 C1707.34516,88.4963547 1707.1218,89.079265 1707.1218,89.7842714 L1707.1218,117.064866 L1708.15825,117.064866 C1711.1089,114.130622 1714.28486,111.099882 1717.68222,107.970678 C1721.08154,104.841474 1724.20656,101.9348 1727.06316,99.2565634 C1729.91977,96.5802963 1732.30811,94.3077339 1734.22622,92.436907 C1736.1463,90.5680494 1737.1083,89.4317682 1737.1083,89.0260941 C1737.1083,88.1182508 1736.85947,87.5885114 1736.36965,87.4368759 C1735.87396,87.2832712 1735.23524,87.1572365 1734.44762,87.0568027 L1734.44762,85.2411159 L1771.96747,85.2411159 L1771.96747,87.0568027 C1770.98196,87.1572365 1770.16887,87.3108413 1769.53015,87.511709 C1768.88751,87.714546 1768.29581,88.0178169 1767.75702,88.4215217 C1767.2143,88.8252264 1766.62261,89.3057335 1765.98193,89.8610737 C1765.34321,90.4164139 1764.58106,91.0997581 1763.69547,91.9051983 L1738.14083,114.485095 L1768.2723,160.706335 C1769.05993,161.919419 1769.79857,162.626394 1770.49019,162.829231 Z" id="Combined-Shape" fill="#216C8A"></path>
            <polygon id="Fill-1" fill="#90CFBE" points="100.103945 0 78.0431043 88.791 77.8568439 223.646 100.04987 240 122.057637 223.523 121.871376 88.791"></polygon>
            <polygon id="Fill-2" fill="#216C8A" points="159.980052 89.3349 159.980052 195.6859 191.99581 172.2199 191.99581 77.8509 200 59.6759"></polygon>
            <polygon id="Fill-3" fill="#216C8A" points="8.00418986 77.8509 8.00418986 172.2199 40.0209493 195.6859 40.0209493 89.3349 7.10542736e-14 59.6759"></polygon>
        </g>
    </g>
</svg>