<?xml version="1.0" encoding="UTF-8"?>
<svg width="200px" height="180px" viewBox="0 0 200 180" version="1.1" xmlns="http://www.w3.org/2000/svg" xmlns:xlink="http://www.w3.org/1999/xlink">
    <!-- Generator: Sketch 52.5 (67469) - http://www.bohemiancoding.com/sketch -->
    <title>Artboard</title>
    <desc>Created with Sketch.</desc>
    <defs>
        <filter x="-115.0%" y="-28.8%" width="330.0%" height="157.5%" filterUnits="objectBoundingBox" id="filter-1">
            <feGaussianBlur stdDeviation="23" in="SourceGraphic"></feGaussianBlur>
        </filter>
        <linearGradient x1="50%" y1="69.9460159%" x2="50%" y2="3.061617e-15%" id="linearGradient-2">
            <stop stop-color="#C3E9E0" stop-opacity="0" offset="0%"></stop>
            <stop stop-color="#FFFFFF" stop-opacity="0.553129516" offset="50.6231936%"></stop>
            <stop stop-color="#90CFBE" offset="100%"></stop>
        </linearGradient>
        <linearGradient x1="50%" y1="100%" x2="50%" y2="3.061617e-15%" id="linearGradient-3">
            <stop stop-color="#EDFAF8" stop-opacity="0" offset="0%"></stop>
            <stop stop-color="#D7F2EE" stop-opacity="0.16" offset="100%"></stop>
        </linearGradient>
        <path d="M42.2071649,2.90443781 C42.2533056,2.90381924 42.2997148,2.90350877 42.3463934,2.90350877 C50.2421916,2.90350877 52.4254266,13.8407434 58.7584687,23.7095644 L65.5311475,13.6879699 L75.0704918,19.8310755 L62.6677395,43.6179379 C62.5278562,46.5362408 62.1616806,49.7178567 63.042623,50.8839438 C66.6700023,55.6854386 78.6557946,69.0592123 99,91.005265 C52.7540653,114.989201 30.8749522,98.9340986 32.0818203,98.4556603 C30.7414894,87.5796384 28.7466113,79.6619609 26.0971862,74.7026278 L24.8852459,73.8320802 L25.2631482,73.2728948 C25.2467989,73.2473213 25.230427,73.2218499 25.2140326,73.1964806 C6.52141919,44.2709013 0.98463286,27.0331721 0.40370893,18.1799169 C-0.177215,9.32666169 13.3972204,7.05137845 20.7377049,4.97744361 L19.9081967,0 L42.7196721,0 L42.2071649,2.90443781 Z" id="path-4"></path>
    </defs>
    <g id="Artboard" stroke="none" stroke-width="1" fill="none" fill-rule="evenodd">
        <g id="Group-9" transform="translate(0.000000, 22.000000)">
            <g id="Group-33" transform="translate(0.213577, 0.000000)" opacity="0.32">
                <rect id="Rectangle" fill="#90CFBE" filter="url(#filter-1)" x="0" y="0" width="60" height="240" rx="30"></rect>
                <rect id="Rectangle" stroke="url(#linearGradient-3)" stroke-width="15" fill="url(#linearGradient-2)" x="2.5" y="-6.5" width="55" height="215" rx="27.5"></rect>
            </g>
            <g id="Group-5" transform="translate(18.213577, 18.000000)">
                <g id="Group-4">
                    <path d="M10.2444262,16.0522556 C5.76508197,28.3714286 16.5901639,41.0639098 24.0557377,43.6770677 C31.5213115,46.2902256 39.222978,24.4289603 47.5722951,24.6383459 C55.9216122,24.8477314 66.2362295,8.21278195 56.9042623,1.86654135 C47.5722951,-4.47969925 40.8521972,8.4883098 36.2302852,7.09285714 C27.5751826,4.47969925 14.7237705,3.73308271 10.2444262,16.0522556 Z" id="Path-28" fill="#222633"></path>
                    <path d="M48.9409836,24.0576441 C48.1114754,30.7564536 49.3895881,40.0684211 48.5636492,43.9674185 C47.7377104,47.866416 46.1746702,47.8950462 40.3970492,47.5345865 C39.8993443,49.7052977 39.8404495,53.3099114 40.220365,58.3484276 L23.2717374,57.7890756 L24.8839306,41.9162839 C22.3832556,40.7784449 21.1117815,38.9285518 21.0695082,36.3666047 C21.0060982,32.523684 26.8937329,28.9720755 29.5066837,33.4981978 C33.8169347,31.009476 35.8053607,26.9876383 35.4719616,21.4326848 C39.8060637,24.8141531 43.5491803,24.9701754 48.9409836,24.0576441 Z" id="Path-6" stroke="#D7F2EE" fill="#D7F2EE" stroke-linejoin="round"></path>
                    <path d="" id="Path-3" stroke="#979797"></path>
                    <polyline id="Path-8" stroke="#222633" points="45.2496721 30.9845865 46.3695082 38.7411028 42.6367213 38.7411028"></polyline>
                    <path d="M39.7334426,40.6906015 C39.7334426,42.8264597 40.9777049,43.8943888 43.4662295,43.8943888 L43.4662295,40.6906015 L39.7334426,40.6906015 Z" id="Path-20" stroke="#222633"></path>
                    <path d="M38.9039344,29.8646617 L42.6367213,29.8646617 C43.422078,29.8646617 43.9639344,30.3495008 43.9639344,30.8815587 C43.9639344,31.4136167 42.8532724,31.5238095 42.0679157,31.5238095 L39.2238876,31.5238095 C38.4385309,31.5238095 37.3278689,31.4136167 37.3278689,30.8815587 C37.3278689,30.3495008 38.1185778,29.8646617 38.9039344,29.8646617 Z" id="Rectangle" fill="#222633"></path>
                    <path d="M45.7784836,29.8646617 L48.1114754,29.8646617 C48.6023233,29.8646617 48.9409836,30.3495008 48.9409836,30.8815587 C48.9409836,31.4136167 48.2468198,31.5238095 47.7559719,31.5238095 L45.9784543,31.5238095 C45.4876064,31.5238095 44.7934426,31.4136167 44.7934426,30.8815587 C44.7934426,30.3495008 45.2876357,29.8646617 45.7784836,29.8646617 Z" id="Rectangle" fill="#222633" transform="translate(46.867213, 30.694236) scale(-1, 1) translate(-46.867213, -30.694236) "></path>
                    <ellipse id="Oval" fill="#222633" cx="40.5629508" cy="33.1829574" rx="1" ry="1"></ellipse>
                    <ellipse id="Oval" fill="#222633" cx="47.1990164" cy="33.1829574" rx="1" ry="1"></ellipse>
                    <path d="M28.1618033,36.5842105 C27.9129508,34.8421053 26.7931148,33.9710526 24.8022951,33.9710526" id="Path-29" stroke="#222633" stroke-linecap="round"></path>
                    <g id="Path-22" transform="translate(0.000000, 51.433584)">
                        <mask id="mask-5" fill="white">
                            <use xlink:href="#path-4"></use>
                        </mask>
                        <use id="Mask" fill="#216C8A" xlink:href="#path-4"></use>
                    </g>
                    <g id="Group-2" transform="translate(75.319344, 27.210025)">
                        <path d="M1.7348824,5.7861582 L17.4619677,0.789931467 C18.5262204,0.451836533 19.7320459,1.06802053 20.1552542,2.16621694 C20.2522199,2.41783619 20.3020247,2.68187159 20.3020247,2.94430675 L20.3020247,38.0970433 C20.3020247,39.0883593 19.7137511,39.9380765 18.8045029,40.2601017 L3.64542901,45.6289368 C2.3847348,46.0754324 0.919053159,45.3798152 0.371737437,44.0752323 C0.235962483,43.7515989 0.165901639,43.4086568 0.165901639,43.0676829 L0.165901639,7.97321305 C0.165901639,6.95372893 0.78762704,6.08708507 1.7348824,5.7861582 Z" id="Rectangle" fill="#FFFFFF"></path>
                        <path d="M2.8105266,6.37195442 L18.5907214,1.50540273 C19.2305723,1.30807514 19.9524521,1.68378517 20.203085,2.34457458 C20.2597241,2.49390261 20.2887946,2.65025873 20.2887946,2.80556453 L20.2887946,38.1682004 C20.2887946,39.1620006 19.6976058,40.0112629 18.7849948,40.328459 L3.5451235,45.6253778 C2.70366096,45.9178447 1.72760326,45.4482467 1.3650376,44.5765013 C1.27570217,44.361705 1.22962392,44.1344606 1.22962392,43.9086807 L1.22962392,8.55749105 C1.22962392,7.53332914 1.85698852,6.66602191 2.8105266,6.37195442 Z" id="Rectangle" fill="#222633"></path>
                    </g>
                </g>
                <path d="M65.5652892,64.654583 L70.1154264,57.5788269 C70.4593533,54.752769 70.7338166,52.5329029 70.9388164,50.9192284 C71.1438162,49.3055539 72.7868801,46.7616852 75.8680081,43.2876224 L78.3898828,43.2875983 L77.5017943,50.5204986 L87.3728491,47.6828778 L88.2271838,45.8563041 C89.4499178,45.140436 90.0612786,45.4192609 90.0612664,46.6927787 C90.0612481,48.6030554 88.7943846,55.6109299 87.1953988,57.2348992 C86.1294082,58.3175455 82.5758389,60.265575 76.5346909,63.0789878 L72.6507211,69.9755768" id="Path-26" stroke="#222633" fill="#D7F2EE" transform="translate(77.813278, 56.631588) rotate(-7.000000) translate(-77.813278, -56.631588) "></path>
                <path d="M79.9348318,35.0859755 L80,35.0594679 C80.3715798,34.9083259 80.7953296,35.087026 80.9464716,35.4586057 C80.9818223,35.5455146 81,35.6384493 81,35.7322727 L81,38.5245696 C81,39.1347497 80.63038,39.6841216 80.0651682,39.9140245 L80,39.9405321 C79.6284202,40.0916741 79.2046704,39.912974 79.0535284,39.5413943 C79.0181777,39.4544854 79,39.3615507 79,39.2677273 L79,36.4754304 C79,35.8652503 79.36962,35.3158784 79.9348318,35.0859755 Z" id="Rectangle" fill="#D7F2EE"></path>
            </g>
            <polygon id="Path-68" fill-opacity="0.16" fill="#D7F2EE" points="98.123754 65.1264901 150.095545 167 266.213577 32"></polygon>
        </g>
    </g>
</svg>